<mxfile modified="2024-02-16T20:20:01.605Z" host="Electron" agent="Mozilla/5.0 (Windows NT 10.0; Win64; x64) AppleWebKit/537.36 (KHTML, like Gecko) draw.io/23.0.2 Chrome/120.0.6099.109 Electron/28.1.0 Safari/537.36" etag="U9CwWKQhD3eNnqoIA5BY" version="23.0.2" type="device">
  <diagram id="aO3z90bnHnR7ok_68EFp" name="Az-Firewall-VPN">
    <mxGraphModel dx="1125" dy="796" grid="1" gridSize="10" guides="1" tooltips="1" connect="1" arrows="1" fold="1" page="1" pageScale="1" pageWidth="850" pageHeight="1100" math="0" shadow="0">
      <root>
        <mxCell id="0" />
        <mxCell id="1" parent="0" />
        <mxCell id="1cgbwnkBgbCBBY_BUVib-1" value="Brazil South Region" style="rounded=1;whiteSpace=wrap;html=1;dashed=1;strokeColor=#0078D4;fillColor=default;strokeWidth=3;gradientColor=none;arcSize=3;verticalAlign=top;align=right;fontColor=#0078D4;fontSize=20;fontStyle=1;spacingTop=1;spacingLeft=0;spacingRight=22;labelPosition=center;verticalLabelPosition=bottom;sketch=1;curveFitting=1;jiggle=2;" parent="1" vertex="1">
          <mxGeometry x="1400" y="640" width="1370" height="970" as="geometry" />
        </mxCell>
        <mxCell id="1cgbwnkBgbCBBY_BUVib-3" value="" style="shape=image;verticalLabelPosition=bottom;labelBackgroundColor=none;verticalAlign=top;aspect=fixed;imageAspect=0;image=data:image/png,iVBORw0KGgoAAAANSUhEUgAACp4AAAODCAYAAACviuAnAAAACXBIWXMAAC4jAAAuIwF4pT92AAAgAElEQVR4nOzdMW4c1wGA4WfBbSC1rkgg6cUbSE1qMVVKs0iRksXrowNModKdlTJFEPdpeIMoBwgg30BBDqBg4SEgA4b5kxK5s8vvAxYLFuLOvjcERjP/vPnq48ePAwAAAAAAAAAAAABu8sQIAQAAAAAAAAAAAFAITwEAAAAAAAAAAABIhKcAAAAAAAAAAAAAJMJTAAAAAAAAAAAAABLhKQAAAAAAAAAAAACJ8BQAAAAAAAAAAACARHgKAAAAAAAAAAAAQCI8BQAAAAAAAAAAACARngIAAAAAAAAAAACQCE8BAAAAAAAAAAAASISnAAAAAAAAAAAAACTCUwAAAAAAAAAAAAAS4SkAAAAAAAAAAAAAifAUAAAAAAAAAAAAgER4CgAAAAAAAAAAAEAiPAUAAAAAAAAAAAAgEZ4CAAAAAAAAAAAAkAhPAQAAAAAAAAAAAEiEpwAAAAAAAAAAAAAkwlMAAAAAAAAAAAAAEuEpAAAAAAAAAAAAAInwFAAAAAAAAAAAAIBEeAoAAAAAAAAAAABAIjwFAAAAAAAAAAAAIBGeAgAAAAAAAAAAAJAITwEAAAAAAAAAAABIhKcAAAAAAAAAAAAAJMJTAAAAAAAAAAAAABLhKQAAAAAAAAAAAACJ8BQAAAAAAAAAAACARHgKAAAAAAAAAAAAQCI8BQAAAAAAAAAAACARngIAAAAAAAAAAACQCE8BAAAAAAAAAAAASISnAAAAAAAAAAAAACTCUwAAAAAAAAAAAAAS4SkAAAAAAAAAAAAAifAUAAAAAAAAAAAAgER4CgAAAAAAAAAAAEAiPAUAAAAAAAAAAAAgEZ4CAAAAAAAAAAAAkAhPAQAAAAAAAAAAAEiEpwAAAAAAAAAAAAAkwlMAAAAAAAAAAAAAEuEpAAAAAAAAAAAAAInwFAAAAAAAAAAAAIBEeAoAAAAAAAAAAABAIjwFAAAAAAAAAAAAIBGeAgAAAAAAAAAAAJAITwEAAAAAAAAAAABIhKcAAAAAAAAAAAAAJMJTAAAAAAAAAAAAABLhKQAAAAAAAAAAAACJ8BQAAAAAAAAAAACARHgKAAAAAAAAAAAAQCI8BQAAAAAAAAAAACARngIAAAAAAAAAAACQCE8BAAAAAAAAAAAASISnAAAAAAAAAAAAACTCUwAAAAAAAAAAAAAS4SkAAAAAAAAAAAAAifAUAAAAAAAAAAAAgER4CgAAAAAAAAAAAEAiPAUAAAAAAAAAAAAgEZ4CAAAAAAAAAAAAkAhPAQAAAAAAAAAAAEiEpwAAAAAAAAAAAAAkwlMAAAAAAAAAAAAAEuEpAAAAAAAAAAAAAInwFAAAAAAAAAAAAIBEeAoAAAAAAAAAAABAIjwFAAAAAAAAAAAAIBGeAgAAAAAAAAAAAJAITwEAAAAAAAAAAABIhKcAAAAAAAAAAAAAJMJTAAAAAAAAAAAAABLhKQAAAAAAAAAAAACJ8BQAAAAAAAAAAACARHgKAAAAAAAAAAAAQCI8BQAAAAAAAAAAACARngIAAAAAAAAAAACQCE8BAAAAAAAAAAAASISnAAAAAAAAAAAAACTCUwAAAAAAAAAAAAAS4SkAAAAAAAAAAAAAifAUAAAAAAAAAAAAgER4CgAAAAAAAAAAAEAiPAUAAAAAAAAAAAAgEZ4CAAAAAAAAAAAAkAhPAQAAAAAAAAAAAEiEpwAAAAAAAAAAAAAkwlMAAAAAAAAAAAAAEuEpAAAAAAAAAAAAAInwFAAAAAAAAAAAAIBEeAoAAAAAAAAAAABAIjwFAAAAAAAAAAAAIBGeAgAAAAAAAAAAAJAITwEAAAAAAAAAAABIhKcAAAAAAAAAAAAAJMJTAAAAAAAAAAAAABLhKQAAAAAAAAAAAACJ8BQAAAAAAAAAAACARHgKAAAAAAAAAAAAQCI8BQAAAAAAAAAAACARngIAAAAAAAAAAACQCE8BAAAAAAAAAAAASISnAAAAAAAAAAAAACTCUwAAAAAAAAAAAAAS4SkAAAAAAAAAAAAAifAUAAAAAAAAAAAAgER4CgAAAAAAAAAAAEAiPAUAAAAAAAAAAAAgEZ4CAAAAAAAAAAAAkAhPAQAAAAAAAAAAAEiEpwAAAAAAAAAAAAAkwlMAAAAAAAAAAAAAEuEpAAAAAAAAAAAAAInwFAAAAAAAAAAAAIBEeAoAAAAAAAAAAABAIjwFAAAAAAAAAAAAIBGeAgAAAAAAAAAAAJAITwEAAAAAAAAAAABIhKcAAAAAAAAAAAAAJMJTAAAAAAAAAAAAABLhKQAAAAAAAAAAAACJ8BQAAAAAAAAAAACARHgKAAAAAAAAAAAAQCI8BQAAAAAAAAAAACARngIAAAAAAAAAAACQCE8BAAAAAAAAAAAASISnAAAAAAAAAAAAACTCUwAAAAAAAAAAAAAS4SkAAAAAAAAAAAAAifAUAAAAAAAAAAAAgER4CgAAAAAAAAAAAEAiPAUAAAAAAAAAAAAgEZ4CAAAAAAAAAAAAkAhPAQAAAAAAAAAAAEiEpwAAAAAAAAAAAAAkwlMAAAAAAAAAAAAAEuEpAAAAAAAAAAAAAInwFAAAAAAAAAAAAIBEeAoAAAAAAAAAAABAIjwFAAAAAAAAAAAAIBGeAgAAAAAAAAAAAJAITwEAAAAAAAAAAABIhKcAAAAAAAAAAAAAJMJTAAAAAAAAAAAAABLhKQAAAAAAAAAAAACJ8BQAAAAAAAAAAACARHgKAAAAAAAAAAAAQCI8BQAAAAAAAAAAACARngIAAAAAAAAAAACQCE8BAAAAAAAAAAAASISnAAAAAAAAAAAAACTCUwAAAAAAAAAAAAAS4SkAAAAAAAAAAAAAifAUAAAAAAAAAAAAgER4CgAAAAAAAAAAAEAiPAUAAAAAAAAAAAAgEZ4CAAAAAAAAAAAAkAhPAQAAAAAAAAAAAEiEpwAAAAAAAAAAAAAkwlMAAAAAAAAAAAAAEuEpAAAAAAAAAAAAAInwFAAAAAAAAAAAAIBEeAoAAAAAAAAAAABAIjwFAAAAAAAAAAAAIBGeAgAAAAAAAAAAAJAITwEAAAAAAAAAAABIhKcAAAAAAAAAAAAAJMJTAAAAAAAAAAAAABLhKQAAAAAAAAAAAACJ8BQAAAAAAAAAAACARHgKAAAAAAAAAAAAQCI8BQAAAAAAAAAAACARngIAAAAAAAAAAACQCE8BAAAAAAAAAAAASISnAAAAAAAAAAAAACTCUwAAAAAAAAAAAAAS4SkAAAAAAAAAAAAAifAUAAAAAAAAAAAAgER4CgAAAAAAAAAAAEAiPAUAAAAAAAAAAAAgEZ4CAAAAAAAAAAAAkAhPAQAAAAAAAAAAAEiEpwAAAAAAAAAAAAAkwlMAAAAAAAAAAAAAEuEpAAAAAAAAAAAAAInwFAAAAAAAAAAAAIBEeAoAAAAAAAAAAABAIjwFAAAAAAAAAAAAIBGeAgAAAAAAAAAAAJAITwEAAAAAAAAAAABIhKcAAAAAAAAAAAAAJMJTAAAAAAAAAAAAABLhKQAAAAAAAAAAAACJ8BQAAAAAAAAAAACARHgKAAAAAAAAAAAAQCI8BQAAAAAAAAAAACARngIAAAAAAAAAAACQCE8BAAAAAAAAAAAASISnAAAAAAAAAAAAACTCUwAAAAAAAAAAAAAS4SkAAAAAAAAAAAAAifAUAAAAAAAAAAAAgER4CgAAAAAAAAAAAEAiPAUAAAAAAAAAAAAgEZ4CAAAAAAAAAAAAkAhPAQAAAAAAAAAAAEiEpwAAAAAAAAAAAAAkwlMAAAAAAAAAAAAAEuEpAAAAAAAAAAAAAInwFAAAAAAAAAAAAIBEeAoAAAAAAAAAAABAIjwFAAAAAAAAAAAAIBGeAgAAAAAAAAAAAJAITwEAAAAAAAAAAABIhKcAAAAAAAAAAAAAJMJTAAAAAAAAAAAAABLhKQAAAAAAAAAAAACJ8BQAAAAAAAAAAACARHgKAAAAAAAAAAAAQCI8BQAAAAAAAAAAACARngIAAAAAAAAAAACQCE8BAAAAAAAAAAAASISnAAAAAAAAAAAAACTCUwAAAAAAAAAAAAAS4SkAAAAAAAAAAAAAifAUAAAAAAAAAAAAgER4CgAAAAAAAAAAAEAiPAUAAAAAAAAAAAAgEZ4CAAAAAAAAAAAAkAhPAQAAAAAAAAAAAEiEpwAAAAAAAAAAAAAkwlMAAAAAAAAAAAAAEuEpAAAAAAAAAAAAAInwFAAAAAAAAAAAAIBEeAoAAAAAAAAAAABAIjwFAAAAAAAAAAAAIBGeAgAAAAAAAAAAAJAITwEAAAAAAAAAAABIhKcAAAAAAAAAAAAAJMJTAAAAAAAAAAAAABLhKQAAAAAAAAAAAACJ8BQAAAAAAAAAAACARHgKAAAAAAAAAAAAQCI8BQAAAAAAAAAAACARngIAAAAAAAAAAACQCE8BAAAAAAAAAAAASISnAAAAAAAAAAAAACTCUwAAAAAAAAAAAAAS4SkAAAAAAAAAAAAAifAUAAAAAAAAAAAAgER4CgAAAAAAAAAAAEAiPAUAAAAAAAAAAAAgEZ4CAAAAAAAAAAAAkAhPAQAAAAAAAAAAAEiEpwAAAAAAAAAAAAAkwlMAAAAAAAAAAAAAEuEpAAAAAAAAAAAAAInwFAAAAAAAAAAAAIBEeAoAAAAAAAAAAABAIjwFAAAAAAAAAAAAIBGeAgAAAAAAAAAAAJAITwEAAAAAAAAAAABIhKcAAAAAAAAAAAAAJMJTAAAAAAAAAAAAABLhKQAAAAAAAAAAAACJ8BQAAAAAAAAAAACARHgKAAAAAAAAAAAAQCI8BQAAAAAAAAAAACARngIAAAAAAAAAAACQCE8BAAAAAAAAAAAASISnAAAAAAAAAAAAACTCUwAAAAAAAAAAAAAS4SkAAAAAAAAAAAAAifAUAAAAAAAAAAAAgER4CgAAAAAAAAAAAEAiPAUAAAAAAAAAAAAgEZ4CAAAAAAAAAAAAkAhPAQAAAAAAAAAAAEiEpwAAAAAAAAAAAAAkwlMAAAAAAAAAAAAAEuEpAAAAAAAAAAAAAInwFAAAAAAAAAAAAIBEeAoAAAAAAAAAAABAIjwFAAAAAAAAAAAAIBGeAgAAAAAAAAAAAJAITwEAAAAAAAAAAABIhKcAAAAAAAAAAAAAJMJTAAAAAAAAAAAAABLhKQAAAAAAAAAAAACJ8BQAAAAAAAAAAACARHgKAAAAAAAAAAAAQCI8BQAAAAAAAAAAACARngIAAAAAAAAAAACQCE8BAAAAAAAAAAAASISnAAAAAAAAAAAAACRfGybgUPzvD7/91xjj1IRxB3/+zT/+87fb/rPX//zqj2OM7ww4d/D317//+CcDBwAAAAAAAAAcG+EpcEh20ekzM8YdfHPHQfvGPscd/c7AAQAAAAAAAADHyKP2AQAAAAAAAAAAAEiEpwAAAAAAAAAAAAAkwlMAAAAAAAAAAAAAEuEpAAAAAAAAAAAAAInwFAAAAAAAAAAAAIBEeAoAAAAAAAAAAABAIjwFAAAAAAAAAAAAIBGeAgAAAAAAAAAAAJAITwEAAAAAAAAAAABIhKcAAAAAAAAAAAAAJMJTAAAAAAAAAAAAABLhKQAAAAAAAAAAAACJ8BQAAAAAAAAAAACARHgKAAAAAAAAAAAAQCI8BQAAAAAAAAAAACARngIAAAAAAAAAAACQCE8BAAAAAAAAAAAASISnAAAAAAAAAAAAACTCUwAAAAAAAAAAAAAS4SkAAAAAAAAAAAAAifAUAAAAAAAAAAAAgER4CgAAAAAAAAAAAEAiPAUAAAAAAAAAAAAgEZ4CAAAAAAAAAAAAkAhPAQAAAAAAAAAAAEiEpwAAAAAAAAAAAAAkwlMAAAAAAAAAAAAAEuEpAAAAAAAAAAAAAInwFAAAAAAAAAAAAIBEeAoAAAAAAAAAAABAIjwFAAAAAAAAAAAAIBGeAgAAAAAAAAAAAJAITwEAAAAAAAAAAABIhKcAAAAAAAAAAAAAJMJTAAAAAAAAAAAAABLhKQAAAAAAAAAAAACJ8BQAAAAAAAAAAACARHgKAAAAAAAAAAAAQCI8BQAAAAAAAAAAACARngIAAAAAAAAAAACQCE8BAAAAAAAAAAAASISnAAAAAAAAAAAAACTCUwAAAAAAAAAAAAAS4SkAAAAAAAAAAAAAifAUAAAAAAAAAAAAgORrwwQAAAAAADwmc86zMcbpGGP3/mx9v/biV4bixzHG+09+fjfG+HD9vizLlR0JAAAAOHbCUwAAAAAA4GjNOXdh6fkal74cYzz/jO96sr6u/SxSnXPu3v69hqi7CPVqWZb3v/SLAAAAAA6V8BQAAAAAADgqc87TNTa9+MzQ9C6er69vx0/b8tdlWS7sYQAAAMCxEJ4CAAAAAAAH75OVTS/3EJv+mlN7FwAAAHBMhKcAAAAAAMDBWoPTy/X11EwCAAAA3C/hKQAAAAAAcHAEpwAAAAD7ITwFAAAAAAAOypzzYozxRnAKAAAA8PCEpwAAAAAAwEGYc56OMd6OMV6YMQAAAID9eGLcAQAAAACArZtz7h6p/050CgAAALBfVjwFAADg3sw5X44xzsYYzz5533m/vj7s4oFlWa7MAgAAv2TO+Wxd5fSVAQIAAADYP+EpAAAAX9Sc83yMcXFDGPCzVarmnP8dY+zi07fLsvxgRgAAGD8dJ56t0elzAwIAAACwDcJTAAAAvog1OH0zxji5w+97uoaqr+acP44xXi/L8tbMAAA8Xmt0erUeKwIAAACwEcJTAAAAPsuc83RdherFFxrJXbj6/Zxzt2rq+bIsH8wQAMDjIjoFAAAA2C7hKQAAB2nOuVtV8ezAtv2tFRwPw5xz96j3ZweyuXvdr+acL8cYP9xTELALWd/vPmNZlnf38PsBANigez7GBPZovcHwYkNzcLEsy/sNbAcAAMBBEZ4CAHCozr7g6ooP5XpVSDZsvcj96oDm6GpfH7xeMPz+nj9mFxtczTkvhdsAAMdvXelUdArH63KM8XxD3+58jPFmA9sBAABwUJ6YLgAAeDAna9TItm1p5ZXNeqDo9NouOnizRggAABwpj9eH47b+jW8pOh1rCAsAAMAtCU8BAOBhiRo3bM65e7z+t499HG6yXix86BVhrlc+PX3gzwUA4AGsx+JWOoXjtsVzIiducgQAALg94SkAADys8/WCKttkpZMb7DkI2H2mx+0DAByn3THmibmFo7bVm3GdCwAAALgl4SkAADysXTh3bsw3y4q0N7vccxDwYn3MPwAAR2LO+Xp3nGc+4XjNOc83vKKx8zQAAAC3JDwFAICHZyWNDVovgllh6Vesq51uYf99vYFtAADgC5hzvhxj/MVYwtHb8g2ET93gCAAAcDvCUwAAeHjP55xnxn1zXGS62eVGVqg5cVEQAODwrTc2vTWVcNzWv/VXG/+SVj0FAAC4BeEpAADsh2huQ+acpwdwEWwLtrTfuigIAHD4Lj11AB6FQzgH8mo9NwAAAEAgPAUAgP0Qnm6L+bjBegFuS1GAUBgA4ICtx5cesQ+Pw6H8n9sNjgAAAJHwFAAA9uOpR4VvyuVjH4Dg5dY2aM65uW0CACB7Y6jg+M05z8YYzw/kizo3AADwf/buXzeSK9sTdfaB3AuWOxbrANdn9RMU27jjFmVdY4yivOuJArZfLD8AUd71xDLGGGMgljtOk8A1D9DkA1x08QmO+AQaRPXKUooqkpnJjNhrR3wfQNRRH6kYGZHxb+/fXgtgTYKnAABQj0oaCUQAeG/u+2ENGVsOvkqwDQAAbCgWEKlgD/PQ0qLbfQscAQAA1vON/QQAANW86dtLdl33ySGoSuXZ9WQMeb5IsA0AAGyuhaqCd4vF4jp+fn3g33kZP68sZoMHtfbO3W/vZYLtAAAASE3wFAAA6uonNE4dgzr64O9isXg9x8++BSFPAACeLZ7Bs1Y7vV0sFmd96KzruutN/sNoJ34YP81Ucy2lvIhuHJ87cnRdpzMHO1NKOWowlH3Unxdd1z0UOAcAAJi9heApAABUJ3haVwuVlgAAYEoyPoNf9e9lXddtXeUwgqr9z1mEa4/is+7vdlOfb2X7+vfRg5W/8CrbttK8FjuM7MX5cZ5gWwAAANISPAUAgLr2+wogXdddOA7jiso+2uwDAMC4Mj2D30Xg9GyXf2nXdZ+icmofQl1WQa0qtmNZ2TRdGJbpiXfuZqr/3nMseAoAAPA4wVMAAKivn/gTPB1fiy3/auqrP72e78cHAOC5krXdvunDZZu21N9UVFHdupLqtiL0txo29e7D2Fpe6Pm6rwwcIXIAAAC+QvAUAADqe1tKOem67lfHYlTa7G8m4/dz9Al8AACe5SjJ7utDp4dTewdbaaF/2HClSaaj9XfuPjh7mmA7AAAAUhI8BQCAHI6jFSMjKKW8WiwWB/b1RjKGPAetTgUAwM5lCJ7eTSl0Gu82y6qm3nFIIb6X+40fDcFTAACAR/ybnQMAACmovjku+3tD0YL0LtEm3agSDADQjlLKYZJ270etP0eWUo5KKeellL4N+D8Wi8U7oVOSmcI7935ctwAAAPgKFU8BACCHfkLjVYT7GFAp5UWiFp+tuVgsFm+TbPN5gm0AAGB9GQJcP3Vdl7GS/6NW3mGWbfQzBHjhMVN55z5O2v0DAACgOsFTAADI4yQmNRjWsYnarZ0mCZ7eCZ4CADSndvD0rqW22aWUlxHeO1bNlJaUUqb0zt1XF36h2wYAAMCfabUPAAB5HEUlG4alzf6Wuq7rW3l+SLApZyb+AACa87ryBjfzDBkt9P+5WCx+FDqlQVPqMLKnYwoAAMDXCZ4CAEAeJjQGVkrpqyztT/pDDu8kqkXVctuHBia8fwEAJqeU8irBZ2rpGdI7C02KSr1vJnb0dKYBAAD4CsFTAADIxYTGsOzfZ4oqUTX345FqpwAAzXlZeYM/eIaEUUxxMe3rCNQCAACwQvAUAAByMaExkFLKi8Vi8XaSH25kXdddLBaLHyr86u+6rruu+uEBANhG7Yqnl5V/P8zFyUQ/p0WsAAAA9wieAgBAPlOdqKnNft2hruv6VqU/jfgr+9Dp+Yi/DwCA3am9uO6i8u+HySul9AHz/Yl+TsFTAACAewRPAQAgHxMaw7Bfd6zruj7M+93Av+ZusVh8K3QKANC0msHTG232YRRTXuy5X0o5TLAdAAAAaQieAgBAPnullCPHZXdif0618kpVEQj962KxuB1gO676tqzR2h8AALZxba/BKKY+jmExKwAAwArBUwAAyMmExm7ZnwPquq6fzO/bKr6PCqXPdRut9Q+7rvs0xX0GADAzryt+XM+TMLBSSv/OvTfx/XxUSnmRYDsAAABSEDwFAICc3pRSarajnIzYj2/mvh+G1rcv7bruNNqo/tC3NN3iV36MwOlLrfUBANiRSzsSBjeHri17M/mcAAAAa/nGbgIAgLT6CY0zh+fZVDsdUR9Aje/tWVSDOYxqqC/jZ1VfKbX/9y+7rhMIAAAAaMzMFnueLBYLiyQBAIDZWwieAgBAaieCpztxMoHP0KQIoV7EDwAA1HBtr8Og5lQF9KAP2nZd9ynBtgAAAFSl1T4AAOS1X0o5dHy2V0o5jnZ4AADADMViKGA4c1vsaXErAAAwewvBUwAASE+b+Oex/wAAAGAApZRX/aLZCvv228Vi8bHSMZ1ThVcAAIAHCZ4CAEBub0spLxyjzfXt7xaLxevWthsAAAAaUaP6513XdReLxeKi0i7qu9MInwIAALMneAoAAPmZ0NiO9ncAAAAwnBrjFefxZ63g6cI4DQAAgOApAAC0QIByQ1ElVpt9AAAAGEAppX/n3quwbz8HT7uu+7Viu33daQAAgNkTPAUAgPwOSimvHKeNHFWaAAMAAIA5qLHY87bruuuVf1b1FAAAoBLBUwAAWN9txX2l6ulmxtxfVyP+LgAAAKiqlPJysVi8rrANfwiadl3XVz+9q7QvjNMAAACzJngKAADru6g4oaGSxpqiOuzBiL/ydMTfBQAAALXVqHbaO/vK/1ar6ulBBHABAABmSfAUAADW92vFCY29UkqtiZ3WjFl1pG/zdzmN3QYAAABrqTE+cdN13aev/O812+2regoAAMyW4CkAAGzma9U1xiJ4+oRSyouRq8PW/D4AAADAqEoph4vFYr/CXj//2v/YdZ3uNAAAABUIngIAwAa6rrvuq2xU2mevtXF7Uh/O3Rvx93114gsAAAAmqtai2Mcqm9aqerpfShE+BQAAZknwFAAANqfqaV5jtrn72HXdr63tIAAAANhGhS4jSw+12V+qOU4jeAoAAMyS4CkAAGyuZhs3wdMHVGj3p9opAAAAc3I0cpeRpUeDpdGd5nbULfrd2wjkAgAAzIrgKQAAbCiqXNYKHWrj9rAxQ7m3XdfVauUHAAAANWRss7/JvzMU4zQAAMDsCJ4CAMB2tNtPJKqLvB1xi1Q7BQAAYDZKKS8Xi8XrCp/3YywAfkrN9/STir8bAACgim/sdgAA2FzXdZ9KKVeVJl3e9EHLNSde5mLsSR7BU5pSSjmM7V3++TJ+lvrw9sEjn+lmsVgsrzn9n9crf37qr4m+EbRs5Rz52rnx6omPdvnAPzs3GhHHf/VYH65s+WPXx7u4Di4tr42flj++A/WsnNf3z+N1zuvrlfvewnkN8Fnmaqef2+2XUvp2+/vDb9KfHPTBXPcIAPi6UsqreBdbx6/9fd2uBMhP8BQAALZ3Xil4uogJn5pVV7MZcwLso8kksoqQzasIzr2Kn70dbO790NWb1X8opfR/XEXQqh8YvjRAPL6o/rw87i9W/nzMMkzV/3k95UUNMcmxem68fCJwva77zwLvVn5n/8dtnBuXy3PE+VHHyjlyGD8vnxlO2bt3/P/0XBjfgZuV6+N1fAc8S+xAVN97de/at4vn83XP6+uV8/p+CB1gamoET+/WDZ6G89Vr9shOVD4FmId74wvrLAbCBCsAACAASURBVGz7tPIzyTGBe2NSq/tmq3GXeO9arLx7fVp9r/ZODZCD4CkAAGyp67rzUsrZjkJdmzoRPP2XUsrRyBVNVDsljfj+L8OmtYLwS6/j5+3iX9t2F0G7S0HUYcSg/tFKiG6ba+Hye/N5gj6qRF3EMdtkkj+V2DeHKyHDmufHfvx82YaVsPby/BBYG0hMCB7Fzy6Cxts4iJ8vof2Va+S178D6YoHF4cr5XeM5fPHEeX29cm7rUABMQlx/a1QSvdjwWlozeHokeAowTfFeeRjX+m3GF/7w36y8O1zEva65EGUsAlx9NxvqfftP716L39+pr42rANQleAoAAM/TT2p8X2Ef7vcTPwZUPhuz6spty0GsXSmlHNdqs9h13eEa/9pkxaDuMmj4Jvnn3Itt/LydEWi8jAH1KudRTBTUCu2f9wsWdvEXReD4eKDvwH7c1/qfvwzw9w9mBxNBY1uGtd/FpNPHlUknYbVniO/CcXwXaoRk1rF6jVz9Dly2OvE4hMbue4uV8/rz+0EppbnJ5JrPeUMppXhnWt+rivtrZ89KDCJ1m/2l/lpbSrmptNikH6c5muuYQeV3LZ6wzVhK5WPaVzOcXJB7Tvs0ijU8VQV0ELsaO4x3keWz8RDvlct3h+X7TnpJFnYu7d0bV1ku7jSuAjAiwVMAAHies0rB00UMes16EjUGAMcMIZgI/ZeXjYS6JmGlquVJgkHd59iPaqhvYzD4IgIGY17HdtWCeRvP/pwRBjpNHKQbXdwHTpIHDNe1DCH+XEoRQt1CnCMtXyuX34EfIzRzPscQ6krY9Ljx+95iZSJ09ZieJz+vp/ic57l1fXstPysxjJX3kbHdbRni7K+1P1b6OhxvGpadkJrvWgzDMd29Oe3TDJ15thLvI6fLjj5zF88Bxw28n+19ZVzlXBEJgGEJngIAwDNENY2rSgNpR/3Az8wDKWNXXRE8ZTRRReBkogPdeysh1NsI8WcP4lQTFU7PBE7/ZUJh7McsJ0vOSin9JMmpCphfF9+Hk/ip1XZ9CAcRmukDiz9NseLTfREcPmqksuk2Vo/phwqLLwC2dVTpHrttUOSiYvD0jXEagDbFu+WZwOm/TGBc8k3cl29jTP/M/Rlg9wRPAQDg+c4rBU/3YgJozmHIMUMYH4V+GMNKi9u5VMHYj4nh02jFZiA4RJWNWveYdFba3E0tYPiY1ZD2VQRQBdWmHTj9miotKsewchyHal+Z1ep5rb04kF2tNvtbXRsrLxBexP7Sch6gIaWUk6hyOpexhgeVUg5jX0xlLKp/z3zXv3cadwTYPcFTAAB4pn6iuJRSq/XxyVyDpxHOG3MwUCCAQWmj/vl8Xg4EH3Zdd51gm6qJKqfnJj20uVvRT/r8XQBVFeApmFlw+DGfW/HHu8SJNpBANvEcViN4cvvMZ52ai7cETwEaEe8l5xPuurC2qHB6NuHFz3sCqAC7J3gKAAC7cR4DF2M76CeCZlqJc8yqK7eCAAwlKgmcTbhl+Kb6geAXbW3ybsUA+PdT+kzbiAmgU/viT5YB1I8RVJvNM4AqwO0TOH1QH6L+JYLlJ3NffAGkUqva6XPfv/v//ucdbcum+nGaV67lALlF0PJi7gsa4x3tbEaLfZcB1OO+0q0xf4Dn+Tf7DwAAdqJmNcwx282nUKHqigEodq7/HpdS+u/W34VOWcRgf3wnZh+0jDZ3n+yLR/UVWf4ZlRInL6qcXgudtmvlGL4TOn1Q//3+R78AISaAAWprqs3+UlQw+7jTLdpMrf0GwBpiEfil0OmXsZc5dphZLv678O4FsD3BUwAA2IGoNlZrUmOOExpjh221yWOnYmD3WisvlmKQ+3Lu34m+4kgppT83fhRMW9u7UsqnqNYyORHI7sMnv/hOtCkWWlzGMZz1xO4G+tD9pwjrAlQR16Aa1+3bHVULrbmAVPAUIKlSynEsAp/t++XKO5qxl3+Nw3n3AtiS4CkAAOxOraqnezFgNgsRzhrz817NqY0xwzKwy9eshE5nXfk2Knf+Y+77YUv7USVxUtVPV86NOVZfmYSVhRYq1W5uLyrwqH4K1FIrgLGrsZU+eHq3o79rU3sCLAD5xLX55zkfGt1EvurLu1fCbQNITfAUAAB2pOu6flLjttL+nNOExtHIgb1agWImJgLiBnb5mrM5hy1Xqpy+S7A5reurn15OIaQWFVw/CSK3KSrVWmixG33108upVjUGcopniVoLP3byDh7t9lU9BeCzeJ6e9ThvBCt1E3nY91MZUwEYi+ApAADsVq3Bqzd9JcWZHMsx2+zfdV0neMqzRZvonw3scl8M+s+2mmMEsmdf7XXHXkebuGZDarHtl66ZbSqlHEZo2EKL3TmI8KnqecBYal1vbnbccaRm8PSN4ApADivdNGb5jhkLA69jURuPex3vXu7hAGsQPAUAgN2qGVKcfDWNCKKMGU4SOuVZVgZ2tYnmTyJANNtB/wjdCmQPYy8mSpp7NhA6bVt85/7u+A1i2f5xzEVYwHzVutbs9B08OtPUare/UPUUII05h05fRQcmC37Xd9D6gl6AsQieAgDADkVljo+V9ukcJjTGnvw6G/n3MSEGdnlMVE6YZbg9AtkXKm0Mrp9U+7ml8KnQadtWqnszrB9jXwMMIrqp1HqHGaJCqXb7ADNWSjmd69jcyjv2foLNac1yQa/wKcAjBE8BAGD3aoUV96O16SRFSGvMdn9XO27xx4wY2GUN53MM1620t3uTYHPm4ueYaEtN6LRtEYRU3Xs8b4VPgQHVqnb6caB38JrB0wOBFRL4yUFgruIa/G6OHz+67HjHfp5l+PRlyx8CYEiCpwAAsGNd1/UDOreV9uuUq2kcjzxQZjKfrQhP8ZQY/J9d8HIldKoK8PjeZQ6prVQAdt1sTFQwvhY6rUL4FBjKmAs+Vw0SEI12+7XGaBaqnlLZTdd1tcLkkMEsu1lF55NfvGPvRL8PL2LcAoB7BE8BAGAYtQa13k54EGTMgfK7rutM5LMxoVPWNLuJD6HTFN4mbrt/7rvRHud1CsKnwE7FAqlaXRuGrEyq3T5zdFcxSA7Vxfvv67kdibiX/5xgU6bkIN59AbhH8BQAAIZRcwJ4cpMapZTDkSe/TOCzMaFT1hEtz2tN5lchnJbKz9nCp7E9s6sAPBHO6xz68OksKzkBg6gVUuvb7P864N9f8x1/L0JAMLaTrus+2evM2OncPnqMTRrXHsaBRX8AfyZ4CgAAA4gJkw+V9u0Uq2mM/ZlM3rMRoVPWEQHMWbU5FDpN6edY0FFdKeWle26bYsLNeZ3H94krGgONiOe2t5W2dtCKpF3XXWu3z8x80MmHOYtn47kt+jU2ObzMnWQAqhA8BQCA4dQa4D2IgaZJqDD5daMiBJuI7+i5gV3WcDTD74lwWk4XSZ4Vzlw72xOh01rBJB6WJlQONKtWVc67kQJyNdvtv4n3RhjDzdwWPMJXzKra6cqiX+/Xwzub0twLwHMJngIAwEC6rrusWFFjSgPMY38WldfY1IVgHWua28THmRbqafWTUec1AxARkPP9aExUdxE6zesiKgkDbKPWOMJYgdDa7/oqpDGW4+jEBLM0x2qnQqej2qtYcAQgHcFTAAAYVq2JjaMJVdMYc3LmrnIVFBoTVd9eO26s4WhOEx8x0fN9gk3hYQeVAxizCmJPQVR1+Xnu+yG5Pc+ywDYitF5rMd0o163obHIzxu96gAqUjOGHruuu7WlmblZB/xibtCB+XH3HOWMawOwtBE8BAGBw5xFmHNtexTZ5O1NKGTuodaEqBOtS9Y0NzWYSIMJpqke34W1cy0YV1U5bCu1ffeWnVlX7KlZaN5KfSVBgG7VCkX2b/TED8zUrlO1rzcvAPnZd5z0MZrRAvKGxyf79+cNisXi/WCy+XSwWf3vg59v4dz5UXiyyjne6TQAsFt/YBwAAMJw+xFhKuag0AHQ8gbYvY4dhDNCzFsE6+LoIp51r8daUs1LKZVQBG0vWil83UXWtrxJ1ve4+iSBt/91/tfIztQrHF87rpvSToBcqngEbqLVwdewqzf3v+3Hk37nqRMt9BnLnuwXz0sDY5FWMD2063vCHZ4MoTLH8yfZO2n++wwTbAVCN4CkAAAzvrFLw9HW/6nbkIMnOxIrhNyP+yhuT82xgCsG6qwhXfYo/+7D8o9XsIlT4agYBK7Z32nB119s4H5bnwVPVHb92PrR4Xdgbc7Kkwv39KbfxrHax7TPTyrXzywRZfM7DmBw7bPmeUUo5abhq0F3c49Y9rxcr50L/58uG73EXsf0Aj6rQaWTVqIGZ/l5fSrmp+LzafGca0jrSwQdmJ+PY5F1s19mu5iSiMvrnd+2o8Hqa6B2tn385fGo8FWDKBE8BAGBgfZix4sTGSeKqYk9R7ZSUon1ti8G6ZSW/y20HRGMia9IBK7YXVR+/b2gX3i7PiTgvtpmovV+Jo9VzoZ8sOe66boxK6VkCF/2E2OlQ7Uhjku18WX1+pUpLC20Qv4jvdEtt2+/undfbTHb+4R65cl4fJq2y85C+pXP/Hdd2H3hKrXvzbaXFn/29/+cKv7e3N+Iz19h+jcWNc5Nh8dl7oSeYl6Rjk+8jcDpYCD7un+fJAqjnFvwBcyZ4CgAA46g1sXHUcPB0zO2+q9DijwZFG6t3DW35syv5reOBgNVxsqqGDGilxX52y+v92RBBh6+cC8dxLrRQLfIsWnMPXSkpQwvQPoh/OGZVqGWVlqgeunw+a2ERQysVvj/EvW7nz3ON3+P6lvvnGz4DDBVcqfn89L7i795Wrf11W/F+LjRVQTzD1VoUUesd/KJi8HQRzwGTC57Gs/Ws2g3H+EDta9eNRSYwLwnHJvtFB8djdl3rA6j9+EXFTnOr9ie8qATgSYKnAAAwjuVAyNgT9/3Ax9EQk/BDiqDOmPtqjKAN09DKIOJVVPKrMgm2ErB6GeGcE1VQd+4uJjm/tJC+f7wjSPAq/vFl/BwOVJXnJHk76ru4Dw9afeO+lWocy6qRmatd7sVxHGziOvZD7bDlh67rqoVf4/u3/F4cxjUy5fcinscyh6aX5/WmwcpnuXePy35eL2IfrV3NMO4lO39+KKVUmxxvMZBTcX99EmCanZoLQqq8W/X34lLKx4oLCN7095Ax713s3srCu5rvuXeJugnAlN2sjL98iuelP1zDIwz6Iv7xMMZfXg30/ptpbPKHobqIPCXerY9LKZeVF5Qs4r1Q8BSYJcFTAAAYQUxsXFSamD5usJqnNvuk00iL/aqB0/tiIL7fb6fJ2mC1aqNqnTEI/9XvQkyKLENvz/peR/gqcyXgwdu9PSXOhX5C5CzuOVnDfNtUR9xE7SpYNzVDp/ctA35xfznN1MY9whSZn4/6CqcnSc7r09hXWSug9gGnQy14gQfUui/eVGqzv3RR+bp9ZByieWcJxgdGrTAIM3Oz0kHoyXeOe/e0L8/d8V51GNf9Z7/vRQeNDGOTfZX8o8r38s+i+ulyUXat92lVT4HZEjwFAIDx1Gr90lQ1jQgwjRnIqT3hRQPie3mSeEvvIoCTdoBzpfLjcaUK0C3bebXOuO5dR3v1V/H93nYSJOv37iYmY9Nc45ctSGOy6DTpeXA6YAilZvA0bUWolQDjiyStAheJK1XfxnmdJkQZx+8oWvDXrnz2kNO5tT8GnhbPgLXCK7WfH2u32z8RPG1X3PNrP6/91Fp3I2jEThd0xxjOsmPCi3gn3So8Gv99hsr0/VjLYabuYf1YS3QUqRk+PVb1FJijf3PUAQBgHBE2uam0u1tqvTV2uM9kD+vIGhDr9W0iX7ayqj6282VUobxLsEnZLY/v6VCD+v39KapAbnxcYmA/Y/XOfiL2VdaFBdGK7rDic8Fj3kbYfgivKn6us+yLcPpzPM7Ff49zv4rEVYz7KqevslbujPDHy5iszuZ1XK8BVtWsAl41MBfP1R8qbsJ+BH9pTDwn1X73vkkSPoMp6cdBvuu6brBOAfG+13cY6a//f9vivSHD2GS60OlSjP/ULBrw2r0dmCPBUwAAGFetkGPmSo1fxMrtsSe/VIjgUTFomKH63H3LQfGjjAO+j4nB9tMIoVULVyXXH99vxzy+Wx6XjBOe/XmR/r63rH6aNKQ21HGt2RKwmcojfUC2P/djMvK2wiZkPK9/6EO52e93cR09rBxmeoiACnBfzTb7GRaD1B4LaGKchj+5qBz8uovq702NAUByV2Mv6O7DrfHe8O1isXjyfI7Q+/fjbN2D0oZOl+IYvq+4Ce7twOwIngIAwIhi8KNGhb/9RqocbdvmeVsfDNazhoxVce9isLfpFk4r4apvVT/9g+VgfpXJ8JXj8qiE1U7779BfWzovEofU3sZikJ2pXPkjS8BlIzEZ+XLM+1BMaGZbbPFdVAluRlSuzXZeq3oKfBGtwmuF51I8q8Wzds13kJY60/Cv8+as8kKqRbQAT9nVARr1U1Q5rTI+3N+L1hl/SbCILH3odCkWVOs6BzCSb+xooCH/z2Kx+C8OGFv4Zcudtu1/B/8x+z3AU84rrVDuJ8BTtiZdMfaq4KZDewwvaRvxZgZ719UPtK+0LHzTxlYPpqXjm6l63jKM3eQkbB9SK6UskgX+TnZ8jHcaZN1Q05PzI4fQs1XF/K7VRRZJz+sW3geAcdRss5/pun5R8Tq9V0o5bn0x4VxEWLt2tcGPrS3GgeSaeNdIsDjwrsFxyP455x8Vfm9/bz+qtZAcoAbBU6AZ/8cv////cLQY0+n/9dtt0gpnQPvOKg1W99XLTrIOEkUltDErR9z2lcRG/H20KVsAZ3Kh06X4TEf95Os6bcYmqpnjG9fsTKHso9Yr/0RIbex74WOOd3wNfLn7TVxbc9VOa4gqt5kqtDQbOl1KGD5N/T4AjCOu97UWe31Mdg2qGTxdxH1X8DS5OGdqH6fbyoFxmJqW3jVqj00etfb+0I8PlVI+VLrHH8XzBcAsaLUPAAAji1avV5X2e+Z2L2NXO7W4gEdFRYFMwbrJhk5X9QP/M20d2NrxHfua/ZjvJrSQ4DAmlTPYj8pOu1IzeMp6Tiq2Xb7vp6lUgIu2+7VaPX6N0ApQ8zqQKoiRoN3+m3jvJLeLBM9IxxaOwM780Mq7RoLFgT81PN5SK7Cr3T4wK4KnAABQR63BrUxBoS9iEG3sFciqivCUTNVOb+cQOp2xu5YmEpNVRfwwpfaky8q/CTZlSUBtXrIc76uu61I+sz7DUeVg06qp7Vtgc4Knf1T7WVJAJbFSymmCBanvdeyBnenHEFoqRnBcMfh+m7AT1Nqi+MeHCr96b8eLeAFSEzwFAIAKIiRTY/L5INr4ZjP2xNcHAT4eUykM/ZC7FttasZHjxqq8HiWping7xQBVfBfeJ9iURVThepFgO55LJbEnxMTYfoJNuZti4DkmPbN8rv2k7wPACOL8P6i0r7O+h9cOnloQkFQppe9G8K7y1vULcpoNfkEyNw1ec2tu7xQqLde6xx9W+r0AoxM8BQCAemoNfGSczB97EE21U56S6TxpLZTIZj5Gi8+WZJmomWy7yZhcztJyfwqVOgRPn5blOJ9GSHNy4lp/leRzqWYM86Xa6T3xrlXzucuCgIRi8VXtsaNJLsiBipoaQ4jwe63FgVdTqLQcn6HGPV7wFJgNwVMAAKinVlufVIPWFQbRbrUoYw1ZgnU/NRhKZH3NTSSWUl5WrJK16sMMruVZvhtTCJ7Wbo+aWqIq31eNtb3chvMaqK3Wdegu+XtN7W1T9TSf8wTV4I+nuiAHKnjf4KLumu8OU6q0XOMefzCR7jEATxI8BQCASmLw+GOF375XSklVzXHk3zf1QAPPFNVmMrQbvp3YQC9/dtpgxc4MYaW7OUzOR7A2Q3XESbTbj1byfF2aaqcJtmFQ8fz/IcGmqK4HMxT3wr1Knzz7YrralS09pyRSSunfNd5U3iKLUGF37hodD651b5hEtdMVta6lqp4CsyB4CgAAdc263X5Uzhu7wpY2+zwlSzB7sm3E+ey20cp+Gc6PsxmdG1mCeFOYMFFJ7GEZwi5zqGK85LwGatFm/wFRBe+m4iZkWyA8W7Ew48fKn/+m6zrPrrA7J62NIVReLDKpBYEV3zMt9ANmQfAUAAAqiuoFtxW24HWEPmsbe2LlgyAfaxDAYQzNDeQnabPfaqWSrSSqerqLgFrta1r/7CNo93UZ9stsKnwnqnqquh7MSFQvr1XB8baRyo21F6kKnlYW50nt7+qd7wLs1F0DVbe/ptaz+s1ExyNrjKsYfwBmQfAUAADqm3PV07G3QZsyHpWozb4W+9Nm4mN7FzNcQJChUvdUJkzOIlBAiDBurUo6S1cRxpyTDAH61wm2ARiPaqdPq72dWRYIz9lZgvGAk6jAC+xGqx1Tao2/THWhb43rqoqnwCwIngIAQH2zDJ5Gy6AxB/RbqbJCXRkC2R9mGMCZm1bDk6oiVtB13XmElWs62EFgM8N17WBOFXPXlCFQPrtjkqCl82eqAMOs1HzPybCI5knxDlb72qzSZSWllH7fv628GR/j2R/YnebOqcqLA6c6dl4jeLpnQQkwB4KnAABQWUxufKywFfsR/qxl7AkVg/esQ7COMbQasqp9fsyxKuJShsmfZx3/RMfubSnlXOXTL2qf13NeGJTh2VQVHpiB6OpwUOmT3jZWvVG7/RmKc6T2O9qt4w87d9PoGEKtd7SPE+4wU+t7IHgKTJ7gKQAA5FBrcqNK8DRW+74Z+dcKnvKo+F7WmpBdUu10+lqbfP8sJmNrt+Oe83U8QzBvFwG1qx38HbvQV7O6jO/1bEX4tvZ9b87V6JsPlAPN0GZ/fbWfN/dVox5XPA+dJ3jXOZpw4AtqaXUModZ9YMrvZrXG4dzTgcn7xiEGWvGX//7r/71YLP6LA8YWfvntv7243fg/+19/6ds/f2uHs4X/WPzX3/4/O45N9JWeSim3I7eeX0TVr5MKg9snI/++j8J8rCHDYKAW0NN32egnzHB+zDagFs8Jd5UnxHfxHegne17v4O/ZhT5w+Y9Syvuu6+ZaaTpD8Ha2gfL+2bSUclM5/KviKcxDzeBpU+83/dhIKeVjhYWyq44bfmdo0WmChTjvW1ycCA1odQyh1jvzZMdc4v5e41frtAJMnuAp0JL/1wMaz7DNIGcfOv3RTmcLV1YysqV+4v1dhZ13XGEySJt9Mqp97b4x2TQLrQ7k1w4nXakA9DmAUDMEsYvvQMZr3LtSSv9ccjLDlu8Z2uzP/b53WTnsMvaiN2BkcY+rtXCl1RbHF5WfuY76KpyefYdXSum7AH1feTOuZrwICoZ02+I9qGLV65sZ3HdqLOa10A+YPK32AQAgj1qVQEatPlph4ut2hkEStlM7gCMgPQ+tVi+qPVjuOl7/u7MXrUifI+tx7MN3v5RSLmfW3rb2ea2aW4JzQktnmLyjih+w1feb2tfmvcrHbRZKKS8TfEfvHGsYjG4zm5nDu9ncFz0CDELwFAAAkohVxR8qbM1+KWXM4IFqp6QTYaraVb8E66av5QoStdtPCqjl2AfPel6I7//N7jZn5/qWhn+fUQBV8LSyrusy7IOXCbYBGEAE62pW7mzy/SaeVz5W3oyxx03m6KJiNeClI5VtYTAW/W5m9u9mA3k9yU8FsELwFAAAcqkVkhyl6mlMfI094CJ4yjpqh29abUPJZpqsrpAhgKcd95d9cFd5M3ZxrWzhvrwMoH6KSu1TVXvBhcnNf6kdxhY8hemqWUnxqvH3m9rPK69j/IQBlFLOEiys+ynJAhSYqlbHEARPAWjKNw4XAADk0Q86l1JuKwQBjvqKjyNUWjgd+O+/76MwH2uqHawzwDsPrV6Pak96X1X+/ZlcV66Y8dxW+4uoLvXjDv6eMfTPYz+XUk4jgHI2lapUCQLlt57RvriuHH6pvfgGGM4oC0wf0PQC0K7rLkopd5UrYh5XGEOZvHgG+r7y5+wXntY8P2HyGl68WmNxYH+/e1VKqfCrR7WL8YyNjTTnAlCN4CkAAORzViGQsRfVUAabHIpW5mNXXFHtlHVpN8wYWj3OtYOnzo/f1Q6ePvta2YcNSykfK7f+3VQ/+feu/ymlfIgAautVeGuf17OvYryi3xdvK/7+KhOwwLBKKa8qV7Zuss3+PReVr8+CpzsW41K1v5t3lasRwxw0uXi14uLAfl7g75V+9xy8Mq4FTJlW+wAAkM9U2+0fjVwtpK+kNYXJLsYhWMcYWq3uVzuYrSri72rvi10F1M529PfU0AdQ/lFKue7b8EeAoUWCp3nU3hcqnsI01aym+HEilb1qjyfsJ6hQPjUXlavY9k5UfYfBtXoPsiAMgOYIngIAQDIxQfOhwlYdlFKGDCGMPfEldMomara4vdVyaR4anmCsPflhYvZ3tQNqO3lO6LrustUqNCv6+8bP/fezlHI+8DPUEGqHDQVPf1f7Glc7gAMMo2ZFxUm8i8dC1rvKm3Fc+fdPRinltHLngN6Hrut05oHhtfquYUEYAM0RPAUAgJwmVfU02vyNHexruZoaI0oQFhK+mYfbhj9l1cmPCCnyL7UDarts2TuV1rF7UQX1n6WUy1JKK61TawfKLbgIGRYlNFy5F/iKviJ3xVD53cQWgdb+LEeu0c8XlWPfVd6M28qViGFOVDwFgJEIngIAQEIRsqkRUhqqmsbYg+tXWpexAcFTxtDyNUk1vCSmdG+LZ50aFd6H1FfR+qWU8ilCP5lVvfcJlP9J7cUJqivBtFStdjqxbg61F7TuVT6ezYvgboYqo0c6ncBoVDwFgJEIngIAQF41KoHt7bpSVwzyv93l37kGrcvYhOApPCBBhaXW27HzuJMELWyH0FeG/Tl5AHWX1Wt5PgumgJ2Ibg5vKu7NKVU77RdKXCdYHKDd/vOcJ3ju+SG+SwDMj0AxMGnfOLwAAJDWRVTXGLvS3PGOJ4vGniS567pO8JRN1A6eqnoyDypusCtXUVmz0p4EPQAAIABJREFUir5V6a6qVfZVnyKY+ctEvx3LAGq/mOjU88kXN0m2A2CKalfHfFVKmdrz46+Vg4uv+0Cxri6bK6WcVA5iL6IjT+3KuTA3rY6zGX+ZptoLugEGJXgKAABJRRjjokK10Dc7ntQYu82+UAetUflkHgSMt2OCfeK6rrsopfy0WCy+n/AnXQZQ+2eik9pt5qMaXk2uh3/2qWagHJiUsd+/73vn6zSI40pdcZoVAegfK2//XYIwOMxOwxWGxy4+AQDPptU+AADkVqsqwk6qlPZV0SpUBlFJgk0d1txjfcjcEYMHCZ7OQNd1fUjmwww+6sFisfh7v7CocvizdvCUP6t9rav6LATsRgTtarcUZxja7W+glPJix518tnXkfR8AgCkTPAUAgMRihXaNdqS7mtQYe3LkSvs5gJ3S6o2xnMyoBXvf8vU6KqDOkQAGwDDmel+Zg/1SisqZ6ztLEMJ+X7vKPQAADE3wFAAA8qtRwXM/qpVuLSp5vR15u7XZpzW3jhjJvXCA0pnkAouoBnU4o/Bp30bxx1LKZYLW92NrtfUlQHaCidPm+K6hlHJcYSzqvpuu604rbwPQkOeOwwNALYKnAACQX98e7K7CVj63WunY1U7vuq4TPGUbNYN1KvQCm5rsdWMlfPoxweaM5XVUP9VCF4CtxX1kzx6ctLfRQp4HlFJeVVq8vepOSBgAgLkQPAUAgOQihHFRYSufO6kxdoBC6JRtHdhzADn0zz1d1/WT9R9mdEj6oNDPpRTPMgBsS9BtHhznB8T41XmCAPZx13UWmAIAMAuCpwAA0IZaLbq2Co+WUvrJkP3db86jale1AAB2pOu6/hnku0pV32vpF/1cq2YGwCZKKS8Xi8UbO20WTua+Ax5xmmBR6Yeu62osHAcAgCoETwEAoAFRLeGqwpZuW7V07GqnVypKAMC0dF13Hq33b2Z0aA+i9f6rBNsCQBvGfv+mnoMIGrMiFj9/X3mf3AgGAwAwN4KnAADQjhrtVw82DT5UqraiNS0AczGraphd111H+PSnBJszlr5q/KXwKQBrEjydF+HGFTEGlWFMqG+x/2uC7QAAgNEIngIAQCOi6leNdrObTmqMPQnS7xOtzACYi9mFEftJ/K7r+ueLvy0Wi9sEmzSGPeFTRnRpZ0ObSimHsWCB+ThyrP/gIp6bavohFksBAMCsCJ4CAEBbalRx2HRSY+xqKxeqStAwbRIB1tR13WXXdf11832lxThj60MU56WUqVW5nVXVXoCBqXY6P/vRWn72SilnfaeeyvvhY9d1Z3M/FgAAzJPgKQAAtKXGYPZeKWWtyaz498auNGGAn5apTgS0pno1p67rTqPy64fm9t7mDiZY2V0V1z8TxgU2FgsTBBDnafbHPar9fl95M+6EvwEAmDPBUwAAaEjXdZ8Wi8VVhS1edyB97AH3G+3MAGA8WaqM989EXdf1zx1/rfRsNKbXpZTTiX/GuRPGBbZxlKDFOHW8nWBF9LXFZ8+wMOdIBx5gRz7ZkQC0SPAUAADaU6Pdfh94eLQlePz/X4+3SZ+pdkrz5jxhSBMuK2/kYSP7aUwCaiv6BShd1/Xfk79NPID6Lip7wRAs5II2qbQ4b3OuenqRIHT9vuu62u9KwEREsQkAaI7gKQAANKbruvNo5zW2kyd+39iVuO4m2HqWOmoHlYTIgE3UnGS/zXqk+on/lQDqVFvw72rxUe3KXO57f1Z1EYpqbdCeSgs/yeWpMZpJiirwtb/7V13XqUYPAMDsfTP3HQAAAI3qK32+G3nTjx6a2IiKjWNX27gwSc5EqHgKD3u02vbcJKiQnL4KS1SeuoxQwunE2hDv95/ruUGHvkpsKWV3W7U5baH/7CDbBgHpqXbKQR9AnlOVvFLKqwpjYffdOf+AifmbAzoo1WyBSRM8BQCANp1XGGzvww5HXdd9rcpojVCHNvtMxSvVe0msdsB/P/XeGV/tSpHNLPiIEMZxhHWPY/HMFL5PJ6WUs9YX38wtKJNc7crvwHYE31jE880sKp/GM12G9+ZjzzDAQG5rvbPGAk4A2JhW+wAA0KAY5P5YYcsfmtwae6Ljpq/WNfLvZLpqTxppOUxaGa610UqWf6ld8bS5e28f0Oy6rg9qvpxIG/69HT133e3g73gO53UopRym2BCgGXHdsDiHRYXOMzWdJ/je//TAYmyAXag1PqkTEwBbEzwFAIB2nVfY8jf32/xGq7Ox24OqdsouCZ5CbgJqv1Px9Bn6Ki5d1/WLaP59sVi8TxC+3NYugqe1Q8Tufb+rfY1T3Qjao9opS58700x9b5RS+mefN5U342axWJxW3gaAIXg3A2BrgqcAANCoqLJwW2Hr709yjV3t9E5bcnaseivx+4FuSKZ2G2bVAH9Xe0JoEtXG+8rxXdeddl3XX3u/q/Q89Rx7pZTWQ0cmN39XO3jadKAc5ibeG+ZU5ZKnTfr7EIudf6y8GXfRYt89ExhSrfdti30B2JrgKQAAtK1G1dMvQdOY9Ho78u+/MNjPjmUIUgnWwcME1H4neLpjXdedRxv+7xKErDfx3OBp7SqXzuvf1X4GmNx5DRPXhwz3HGRWvJ3qQsb4XDXGve7rFyy5XwJDqzXeLXgKwNYETwEAoG01BuD76ozLCfIa1bYyTDowLbVb7S8ET0lOQC2BmHjfr7gld1Ne+BEB1P5a/LdGAqivSynPmSCsfSwPKv/+TATKgU1os8/XTPV7cZbgmeFj13VnlbeB6TD2w2NqPZe/dlQA2JbgKQAANKxvFdsPglf4BMtJjbHb7N92XVc7AMXExHlUm3aZZFb7HNl/ZsBuKoTTRtA/Z0QAtYUW/M+ZuK5+PFcWMs1WXNtqVi681UkA2hHXDOEQvmZywdNSynGFDjv33Qp7V+NaxxxVey73bgbAtgRPAQCgfTUqgB7FJMDYlddUmWAotavb9cE6VR3JSlXgHGrvg1kt/Fhpwf++r/aaYJO+5jmLFjIEiZ3X2uwDmxGA4yEHU3qfjM+SYfznyAINdszzLw+qXGzBmCQAWxE8BQCAxnVdd1GhIldfmennCntOm32GkiFYZyKZlJJUmjZBV78y8iwDal3XncYkXMb2+1ufFxGiqF3RVbVvwVNgM94XeMyUvh/nlSuC9953Xec+WdFEu17o5MFTar2jGXMBYCuCpwAAMA1zqAT6QaUJBpQhWCeAQ2Y3lbdt1udHKeVFX8mq8mbMduK967pP0X7/hwSbs2rvmRPytY/pwUQDBZuofW2bVSVjaFm0wB274whtmUTwtJRyluC59yoWH1HXpJ4T453OdZyn1HpHEzwFYCvf2G0AADAJfTWIHyd+KFU7ZUgZAlV9u/2jqGIM2VxXngDem/n5UTucdtuHLytvQ3Vd152VUvpz4SJBFa6ll8+o2t1/lje736SNHM1kAdWf9Ne02t+jJBWtgfVkCBV+13Wd9/KviLDk95U3o/nn5bg31t6Pd3Nf9JbIq4ktkhHsYx213tH6e8ih9wMANqXiKQAATEBUAv0w4WN5a+CLIUULvbsEO/kkwTbA16gKXJeqiEnE88hhknvG4pkT2BmO65zbRtc+r68q/35gTVEl722C/WWB3MOyBHKbva9GFfQM+/FYt50vai88m1plfMFT1lHzHU3oHoCNCZ4CAMB0TLnyyCwrYTG6DAGc19FGE7LJUBX4bQQvZiUm4WtXpRQ0WRGLFZqflEuyqKdvt/8qwXbUIFAOrCvDPeeDMN7D4tngNsGmvGn4eTlDRfmfdCD5XYKOB1MbGzHWwzpqjr0IngKwMcFTAACYiAgPZJjoGIJ2fowhSwDjNME2wB8kmkyfY1XgDJWrBNTuieeu9wk25bkT2BmqXs7uvC6lHCcI1wjWQDsyXCddM56WZcFsc1VPSyn9O/BB5c246bpOB5Jcan8ndiYWE07m8zCcWORxU2kX75dShE8B2IjgKQAATMsUK4OqrMJYskymqnpKVhnChyczrHpaewL8yn3467quO53Aop8M5/XbmIyfk9rn9W0sKID7ZldZPLskYaU7VSDXkmUfNRU8jXffd5U3467FwO5Iqj7rTmhsxPeLTdR8R/NdBWAjgqcAADAtU6wMqtopo4g2crWqCtw3xRA57csQUNubU3VEVRGb0HqV6izHdzbVviNAUTtE5rzmIaqx5aPaaSMSvU8elFJeJdiOJ8WCsgzfrxMLMh5Uu93+VKovCvOxiZpjL29muCgQgGcQPAUAgAmJimQfJvSRbqOVLYwlS9D5INoNQiZZQgdzqnqa4TogbPK4pvdPhCwyVG2dU9XTDOe1hV3QjgyhK88C69NufzMXCRZZfey6zn3xYbU7HzQfPI3FhPsJNoV21B4LNx4JwNoETwEAYHqmVCnR4D9jyzSp+q6VSjXMQyxu+Jjgw+7NYSIkwue1Jyg/RvUuHpDovHiOLPe+yT/3lVL68MTrypuhzT6P8vyZR1wzaj8LaLO/Ge321xTPutXviSpRPqn2M8P+BO5LvmNsJN4xryrutTktCgTgmQRPAQBgYmIiOUu78OcSPGVUydrt9y5mVNmRNmSZTP8+2lVPUkzyaK3bjtZDfFmet15HyGqS4n6eYYGY52ueImiQh2qnjcm0UCvzPTWChO8SbMpRHDMelmERWob3oq3EO2vtgDVtqn3/9c4AwFoETwEAYJqmUPVUlTVqyXT+7JvsJZn++3iXZJPOJxzMPkvQdvRO29G1NR08TdRufxHn9VRDbxmqGC9MIrMGFU8TiGectwk2xbvI5lQ9fUR8tzPsox9UAF9LhnG5o4bf+zx3sa3a18lJLwoEYHcETwEAYJoyBYO2ZXCWWrKdP/1g76zOB1Ve84qKQFkm0/cnstDiD0opfUWfNwk2ZafXnYm36ptCpaws59LeFENOUe3q+wSbYmEX65hsRfHGZAh7aLO/nSzvk2+SvledJ1iIcdV13eTeI4bQdd1lgs3Ya7HqaSkly6IjGhTP7DXb7S8mvtgXgB0RPAUAgAlKFgzaxq0JLmpJev68nUP4tG+5WEq5VmkrvUyTtG8jqDkJ0Xb0xySfZdfH+biUcjnxAGoNuwq9ZrrvHUzpnhff+Sz7V8imHTVDa6+FDFLI8HzjnXwLyd4nU1U9TbLA6i5JsLslGSrjn7R0b4r3uncJNoW21X4nmuSiwF3wrAzwO8FTAACYrpYnllU7pbbThEdg0uHTmITsq6kcJNgcHhEtKW8S7aMfSykpW4luIsJpGSoK9T4MVBXxdd+Wfkph4VAzTLuTFrFxvD/s4u/akbdRJappK+2E9xJ8jtskVctYT+32z0JZFcUzQYZnYmH17Qme3pNogdVRhINZX+170iKepZp4NoznP+Oa7EKGCtqz68L0lFJK/5ysiwRAEDwFAICJShgM2oQBLapKGMBZ+hw+ndLK+qhyehmTkBmCOawnWxDh55bDp8nCaYuB78N7ERa+jvbjU1AzeLrL4ES25693EzivMy2oaD7Iy6iaX9DRuAwLNG5jTIEtRAeXDO32DyLwWVWiIN5PFmFsJcs++76R94czC2rZhUQVtN9OYbHvc/X3slJKfzx+MX4J8DvBUwAAmLYWK5R8HKjKGmwqa0DjbT/x03q76hiw7ffxP6IKIg3puu48ScvFVU2GT1cqnWaZnLwaaUK+/7x/jzB96+33a06A7ywUFMf9ald/34783GKFnYSh09u4btOO2tX4Xk/g2tyyDBVntdZ9vizX3QzPxxmCeDdd102t6v5YMoV1LzIvxI3n1rcJNoXpyDI2+fMUOlJsK7q29PMVb9r8BADDETwFAIBpy1JlYxMmxUkhcdXTRUzaXUd7p+ZEOLDfv+9a3H6+yDjp0FRILSpQXSeriDP2hHw/MfvPfhKrxWrOsc01w/O7rkaX8bzuK+ykDhmsShgmX6h22qQMlSa9l1UQz/f7CTbF8X8+wdPf3/1qB/HukgS6mxTVj7OMLe7FQtx0z4VCpwwhxiazLA58N7e2+/1zWSnlky5NAA8TPAUAgAmLljwtDQjdRks6yCJzUKMf8PwlwjhNVKTqJx1jwPZnA7btS1r1dBEhtesMbUUfExUz/pHsXPhQsa1uH0T/1GAAtWblrNt41tuZpFVPF1FZ5jp7e9UIjGULk1+pdtqk2hVPF1H1dPZtVSvIEI7TZn8HYh9meFbeq3Uux/N4hk48JzrrPFumqqcH2To8CZ0ysExjk02MtzxX/95ZSrmMtvoZFgQBpCV4CgAA09dSu32T4qQSk1Pvkx+VZRgnbVjrXuDUgO20ZA1n95OR/8h4XvRB8ZjA+DHB5qy6S3A891YCqOlb8Mf21QyeDhUAyHpe9/ePv5dSzhKe1y/6hSAxMZltYYVqp23KEvo7m3qwIJO4tmUILlkMujtZxjhqBZrPE9wXP1iAsRPZrgvL8FvVZ8J4BrwUOmVICRcHfhlvSbAtOxXjl/3+/nvlziYAzRA8BQCAiUvWkucpJgPI6CxRW7mH7GWrFhjhuj6s8KvA6XTFJG7me8y7CGZXr9gWk5L9xMw/k05gnCWqBLW30oL/IqpIphLX2YvKYYpBgqcxsflhiL97R77Pcr9bOa8/xUKQbD7E8aQ9WYKny5bGg1UbjvPobIrhhS1kud95L9+dLPvyzdgLevrzOkEF8NvKi4SmJGMg/SDe9aoskIh74yfhNEaS8Tmpb73/KXtXiqfEs+jJyoJ55zTABgRPAQBgHlqYOLrS+oyMoo1xK21GlwHU/4xqgaMO/sZg7bI6wD8jHKSl/vRln8ztQ88/x4TIaYVJ95fRevFTnJ8Z3XRdlzXw04f5fonjd5ahCmpsw2WCMMWQAYCT5IsuVhdcjP69iPP6dOW8znivuxO2aVc8f2Y5B/ei2vBOw973gtvf7+rvbVyGc1ab/R2KMY6bJJszWrA5Fg1lOK+P4nrKM8V+zLjgcD8qL45WET+eAy+iIqLxDkaRsOrp0rIrxaALlYbQ36tirOY/oyONBfMAW/jGTgMAgOnrK9JFtYnMA6KqqpBW13V9xb2PSauZPeRttJ+7jYBUPzFyueuJtwj7HMZEZkv7hx3pwwmllJ8aCI3sR0DsXZzPn8+LIRY9xHlxFKH12uHEdbQQTtuP79j3pZSbeG4Y5Pg9JkJSJwmeqT4OGaTo/+74rD8O9Tt2ZO8r34vLIUJTDd7vjoVtmnedrOJSfw89jmvDxbbfrwikHWlL/EdxjcnwzOC9fPfOk9xPT6Kbx6Diu5zhe9SH9/swYoJNSeE8ulU8x3niSoDfxz3qLDo57PwZKL7bp+5fVHQci7wzeh0B1Ns4T7Z+VhxSVEg+jmdRQVOAHRA8BQCA+ThPHAq628EAOAztOCoytVbRYn8ZQl38a5D1JoIMnyJ49+u6AZ2oIPJq5efQQC3htLGB+zfx8+NKOHt5TnzaJMwYE5DLQNrLBs+L9w224j6IAMfy+F3Esdt5uH7xx8mp40T3gMHbnXZddxYBsVZaDS6/F/0xu4vvxPWm97rFNO53fTA5Y0tcNnOZ8PzbjxakP68s4rh+7D4S59MytO3Z8WFZFoF4L9+9LMHT/f6ZZoSKtudJnpf2tEv+g108719EeDnrmMjevYWGF88NvzW4oJAJ68cpSinvE3dSWXzlWfHZ5+FzeA4FGJ7gKQAAzMdZ4uCpyS3Si+pv/WTDL40frYOVCZPPg9UrVWD6UOrXBoNfmGThMSvnx98b3FH7K1Vr7p8Tj7Wym8JEduYW++v6Ugl18cdw/fLnOUHiZegw2+TUmAt2jmM/trboYm8lYL7uvW4Rx7v1lql3cdxo32XyYMHyHFueX3dxvVg1hXNqLBnO25uxK4nPQTwnZ+mecTLkdy0qIgt7TlR8ly8aqfi5vEf9fG/x7fXqc2C/cOJee/Dlu0DW9wA4i+t4C9/N1fPwanVh4FBB1DifV9/njWUCDEzwFAAAZiJWRV8lnQQYvN0b7EK03G+hpfi2DMiytZi0y159Y1NTnji/i6ofU7MM13+ZEH8kELXUWrh+tOemeH48iao1UzH1e92RFvvTEPfVlj6L6oJbiurSGQK6FoQO5yJJ8HSwZ78I+0zpPYCva7HV/MFDz3+N3Weh5UW/r1efE6NDxTIQ/ikC4fff16/j8y4D4atexXv8slPFS0FxgDr+zX4HAIBZyRjwvFJVhZZ0XXcS1dKAe6J65mNVQsnjeGb3372Vya77Py0FEe/Gfp6L6qofxvydbO2Hx1qe06SPDtssZKlSfJFgG6bqIu7hte1FYGmnopWx788MxPuD9z2oKJ73f2r8GCzfz9/GooUfI0y7+vOfpZTfFovFP7/y//sx/rvv4+8ROgWoRPAUAABmpK/WuFgsbpN9YlVVaNFhwnMJsjhKMrHOw97HMwHtOatUzdKii/w+dF2ni8D0uFZPXAT2MlTC1GZ/QHHvznI+D1H19CJJ1V7GcWo/Q10WxQOQheApAADMT6ag511U0YKmxMShcB18RZwfh86PtD5EZVrac1urer37Xno3EQ5megRPpy9LtVPv5cPLcj6/ibbFO1FKOVltn8z0RbVFFbmhPu9nAFQneAoAAPOTaULJ5BbN6rrueqBqMdC8OD+EoPLpq5llCbiwuZNK1U4/i0p4QuX59KHTw5rfDYYTx/WDXTxp2uzPRFSbz3IP3cl7bCnlVbQ7Zn68623HczQ7E+9n3u8BqErwFAAAZiYGpbJUJtAOlKZFpY/vHEX4s6ho7fzI4yZCg7TpYwRWqopQucnNPO6ETmfBYr2JitDeQYJPp83+eLKcz88ODZZSXggsz1dcM97PfT9s6M5zNLsW74g/2LEA1CJ4CgAA85RhsuPK5BZTIFwHD3N+pKEiYttuM01Sx+Sm87o+odOZiIVOV3PfDxOV5dpuQeh4sgRP9yP4/Bz9Z9mv+zGoqeu603jPYD19pWHPbexc13VnKuQDUIvgKQAAzFAEBm4rf3KVe5gM4Tp4mPOjOqHTtvXhwqNsx895Xd0ydHo98/0wJ6dz3wETpc3+zMR1u/ZYzNJzq56+2d2m0DAVPNfzQywkgUF0XXcsfApADYKnAAAwXzWDn3cmt5gaIRx4mPOjGqHT9p1kDReunNd3CTZnTvrz+qXQ6byoejo9pZS+8t1egg/20XPC6LIswj1KsA00Lp5HtPl+3IeoSAmDEj4FoAbBUwAAmK+akx0XJreYogjh/E0IB/5M+HR0/QTnK/fbpn0X501asX2H7nujESaft+dWJyQX1U7nK8u9fa+Uololz6bN96M+RBgQRiF8CsDYBE8BAGCmuq77VHEgykp/JisqUh0maqEIaURI7a9CaoN7b4KzeelDp0tR6eowQpEMR5h85uJc+2nu+2EKSikvErUpFzwdWYzFZLlnqnrKTsS7x0d78w+ETqlC+BSAMQmeAgDAvNUINNxoDcrUxXf8lZao8Gcr54eQ2u71gd5vu647ndoHm5lmQqdLK+FT971h/CC4QDh1/5yELOezNvv1ZLnPvymlvEywHUzDsXvUF0KnVBXfPx1nABic4CkAAMxYVGYcuyqjaqfMQj+J23XdocpU8GdR6cn5sVv9JG9fDVHlsnbdtRg6XVq5773PsUWT0D+n/zVa2MIiQoLHKoc3T5t9Mt3rhePYibhHWYi0WPwkdEoG8V75N8+NAAxJ8BQAABhzIvvO5BZz03XdiYFe+LMIqfXnx7fOj2d7Hy24PzX+OeasDxgetho6XRUVd/9WYXHT1HyIMLlOAfxBfCdO7JU2lVL6qu8HSTbeu3klEdDL0pZcQI6dWVmINMc238tFZO7RpBFFJ14KhAMwFMFTAABgzIDDhVZ+zNHKQG+WyUVIIyp0Oj+2cxPVELXWb9vHqQUM4773SlXjrfSB3W/7Slmem3lIhNS1T22TNvssZQn+7pdSDhNsBxMSFT9/mNExvZnKIjKmR2eKnbvzHA7wO8FTAACYuZhsGqsSgTahzFYM9B6pAgd/tnJ+fOv8WMvdSpVT1RDb1R/HH/rv/hTDPytVjf8Wk/E87X2EkFUh5EnCp83KEjwVjqrvIlHVf1VP2bmu6/oxwL/O4P3OexlNiAWrf1X9dGt38b72Usgc4HeCpwAAwGKkSacbg7Dwhypw77UX/6p+ANy1Yqb6sFXXdS+dH4/6EBMdqpy27SoChpNflNPf9/rJ+AjIOa+/rq96++/9ea0CIZsQPm1LKaVfZLOXYKPvBNzri+t9luNwVEp5kWA7mJgYB5xqFfwr3SdoTX9ORvVT72brWw2cel8DuEfwFAAAWAbhhq5AoNophKgCdxrtxceqOJxdP2nzt34A3CAuK+eHAOrvPkQwTfvttt2uXOs+zemDR0DOef1Hy3vf0dy+D+xOnFt/dV41IUtVSaHTPLIciz4QfZRgO5iglSr4U6m02D/PfxfP8xbN0iTvZmu5FTgFeNo39hEAABD6YOiPA+2MO5Nb8GcxaHlcSulDdqcx2ZehCtKY+ipvZxGAhy/i/DgtpfT3p5P4mdv5sbx/nrYeSusnakopl3Ec3yTYpLHdxnGcdUu+r5zXfQhrP8Gmje1D3PuEFdiJ/rtUSnkZnSzmeI1NL45PlmPj3TyJvvJsKeUuyTPu8UjdcJipeO45LKUcxvjH68b2hOd5JsWYy4P6ccpz1eEB1iN4CgAALJ3HwO8QA0wXVgXDwyJQdhztDecQxLmLa86ZCm885d5kyFGcIwcT33G3sSDkfEr3zwiYX8a17jh+pn4sb+JaZ4J6xfK8jnN7+V1oLXywqdu495279zGEOK+Oop372UxD3ZllqSapzX4+/b3h+wRb9boPSLtHMbR4J1gGUPtnwLfJd/pVPM+7djJJ98ZcjmPMZW7PkR9jYY45DIANCZ4CAACf9YMqpZSLgQZ8tdmHNdwL4hzFBHX2SZh13a0M4pqwYWNxfnwObZVSXsWEyNGEJkSW58jkqyDGseyfDc6iAlx/HA8nVKVvNsdyFyKUex7fheOJLb5w72N08V197GIMAAAU2ElEQVS7iFD3aSPnUx/Mnnr1+5ME27BQ7TSlLMHTRdyDTxNsBzOwsijtJOGitJs4Ny+EsZmLe+/phytjLlOsgnoXz57CpgDPJHgKAECrzitMTM2hDXQ/wbDzAdUZhC7eV/zdNb6XWqKPYCU0cBIDvctgVksDvssQQZbAzaeK56vzZofivvK5FVzjIdTbmOi4nGsoLSZyz5aLVCJ0fxg/LVVDFTB8pvguLBdfvFq597VWFTfbvS+Lms/Ls7QS6j5OWi18ed08j/DRZEWl7yyVr12Xkumfa0spWa6Rm4wHua63Je119l7Y7cXK2MfhiO93yxDa5cBh05pjEmMHaGuM3bMjy2D44vd39KMJhFCvVs5xC0QBduQvv/32m30JNOEv//3X/1wsFi8cLbbww2//7cXmlfb+11/6Qfkf7XC2cLX4r78d2nEADCGqDix/srUlXoZtrlUGoYaomHhYYaJyXbcrE5qXzpGnrVzzXsVPpmNq4moEKwGEV0kDybdx31ue174LpLRSYbpmRbmrlXNFGAWAR8Vz4PIZ8GX8vHpm+O02QpiX8ee15zdYz8oCwcMdnItDuol3tGvvaADDEjwFmiF4yjMInjI2wVMARhOhrFcrEzBjDPzexeDtp5UJm2utqcjmgYnKMQLbzpGBrBzTMa97JqeTqXTvW0RoznlN8+JauhrsH+LeuDxfruNcETQFYGdW3gvW4j4EuxdB1OV72XLcZcxKxavjLp//b+/qAOMSPAWaIXjKMwieMjbBUwCqi1DOIgaAl8/R607M9IO0v37ln381gMtUrJwjy0Dq0jrPcb/GebG0nOhwjlQUk14v7h3Tda5794+na16jHvgOLO7dCx/y0HktqMAsREXUl/fOn/vn0n2rz4zL//uTit4AAPO18lx5/338qWfLpS/vYmH1Xc2zJkAigqdAMwRPeQbBU8YmeAoAAAAAAAAATNK/OawAAAAAAAAAAAAArEPwFAAAAAAAAAAAAIC1CJ4CAAAAAAAAAAAAsBbBUwAAAAAAAAAAAADWIngKAAAAAAAAAAAAwFoETwEAAAAAAAAAAABYi+ApAAAAAAAAAAAAAGsRPAUAAAAAAAAAAABgLYKnAAAAAAAAAAAAAKxF8BQAAAAAAAAAAACAtQieAgAAAAAAAAAAALAWwVMAAAAAAAAAAAAA1iJ4CgAAAAAAAAAAAMBaBE8BAAAAAAAAAAAAWIvgKQAAAAAAAAAAAABrETwFAAAAAAAAAAAAYC2CpwAAAAAAAAAAAACsRfAUAAAAAAAAAAAAgLUIngIAAAAAAAAAAACwFsFTAAAAAAAAAAAAANYieAoAAAAAAAAAAADAWgRPAQAAAAAAAAAAAFiL4CkAAAAAAAAAAAAAaxE8BQAAAAAAAAAAAGAtgqcAAAAAAAAAAAAArEXwFAAAAAAAAAAAAIC1CJ4CAAAAAAAAAAAAsBbBUwAAAAAAAAAAAADWIngKAAAAAAAAAAAAwFoETwEAAAAAAAAAAABYi+ApAAAAAAAAAAAAAGsRPAUAAAAAAAAAAABgLYKnAAAAAAAAAAAAAKxF8BQAAAAAAAAAAACAtQieAgAAAAAAAAAAALAWwVMAAAAAAAAAAAAA1iJ4CgAAAAAAAAAAAMBaBE8BAAAAAAAAAAAAWIvgKQAAAAAAAAAAAABrETwFAAAAAAAAAAAAYC2CpwAAAAAAAAAAAACsRfAUAAAAAAAAAAAAgLUIngIAAAAAAAAAAACwFsFTAAAAAAAAAAAAANYieAoAAAAAAAAAAADAWgRPAQAAAAAAAAAAAFiL4CkAAAAAAAAAAAAAaxE8BQAAAAAAAAAAAGAtgqcAAAAAAAAAAAAArEXwFAAAAAAAAAAAAIC1CJ4CAAAAAAAAAAAAsBbBUwAAAAAAAAAAAADWIngKAAAAAAAAAAAAwFoETwEAAAAAAAAAAABYi+ApAAAAAAAAAAAAAGv5xm4CGvI/F4vF/+mAsYX/2HKn9f/dlR3OFi7sNAAAAAAAAABgiv7y22+/ObAAAAAAAAAAAAAAPEmrfQAAAAAAAAAAAADWIngKAAAAAAAAAAAAwFoETwEAAAAAAAAAAABYi+ApAAAAAAAAAAAAAGsRPAUAAAAAAAAAAABgLYKnAAAAAAD/u107EAAAgIEg9P7UQ9gBFEcAAAAAACTiKQAAAAAAAAAAAACJeAoAAAAAAAAAAABAIp4CAAAAAAAAAAAAkIinAAAAAAAAAAAAACTiKQAAAAAAAAAAAACJeAoAAAAAAAAAAABAIp4CAAAAAAAAAAAAkIinAAAAAAAAAAAAACTiKQAAAAAAAAAAAACJeAoAAAAAAAAAAABAIp4CAAAAAAAAAAAAkIinAAAAAAAAAAAAACTiKQAAAAAAAAAAAACJeAoAAAAAAAAAAABAIp4CAAAAAAAAAAAAkIinAAAAAAAAAAAAACTiKQAAAAAAAAAAAACJeAoAAAAAAAAAAABAIp4CAAAAAAAAAAAAkIinAAAAAAAAAAAAACTiKQAAAAAAAAAAAACJeAoAAAAAAAAAAABAIp4CAAAAAAAAAAAAkIinAAAAAAAAAAAAACTiKQAAAAAAAAAAAACJeAoAAAAAAAAAAABAIp4CAAAAAAAAAAAAkIinAAAAAAAAAAAAACTiKQAAAAAAAAAAAACJeAoAAAAAAAAAAABAIp4CAAAAAAAAAAAAkIinAAAAAAAAAAAAACTiKQAAAAAAAAAAAACJeAoAAAAAAAAAAABAIp4CAAAAAAAAAAAAkIinAAAAAAAAAAAAACTiKQAAAAAAAAAAAACJeAoAAAAAAAAAAABAIp4CAAAAAAAAAAAAkIinAAAAAAAAAAAAACTiKQAAAAAAAAAAAACJeAoAAAAAAAAAAABAIp4CAAAAAAAAAAAAkIinAAAAAAAAAAAAACTiKQAAAAAAAAAAAACJeAoAAAAAAAAAAABAIp4CAAAAAAAAAAAAkIinAAAAAAAAAAAAACTiKQAAAAAAAAAAAACJeAoAAAAAAAAAAABAIp4CAAAAAAAAAAAAkIinAAAAAAAAAAAAACTiKQAAAAAAAAAAAACJeAoAAAAAAAAAAABAIp4CAAAAAAAAAAAAkIinAAAAAAAAAAAAACTiKQAAAAAAAAAAAACJeAoAAAAAAAAAAABAIp4CAAAAAAAAAAAAkIinAAAAAAAAAAAAACTiKQAAAAAAAAAAAACJeAoAAAAAAAAAAABAIp4CAAAAAAAAAAAAkIinAAAAAAAAAAAAACTiKQAAAAAAAAAAAACJeAoAAAAAAAAAAABAIp4CAAAAAAAAAAAAkIinAAAAAAAAAAAAACTiKQAAAAAAAAAAAACJeAoAAAAAAAAAAABAIp4CAAAAAAAAAAAAkIinAAAAAAAAAAAAACTiKQAAAAAAAAAAAACJeAoAAAAAAAAAAABAIp4CAAAAAAAAAAAAkIinAAAAAAAAAAAAACTiKQAAAAAAAAAAAACJeAoAAAAAAAAAAABAIp4CAAAAAAAAAAAAkIinAAAAAAAAAAAAACTiKQAAAAAAAAAAAACJeAoAAAAAAAAAAABAIp4CAAAAAAAAAAAAkIinAAAAAAAAAAAAACTiKQAAAAAAAAAAAACJeAoAAAAAAAAAAABAIp4CAAAAAAAAAAAAkIinAAAAAAAAAAAAACTiKQAAAAAAAAAAAACJeAoAAAAAAAAAAABAIp4CAAAAAAAAAAAAkIinAAAAAAAAAAAAACTiKQAAAAAAAAAAAACJeAoAAAAAAAAAAABAIp4CAAAAAAAAAAAAkIinAAAAAAAAAAAAACTiKQAAAAAAAAAAAACJeAoAAAAAAAAAAABAIp4CAAAAAAAAAAAAkIinAAAAAAAAAAAAACTiKQAAAAAAAAAAAACJeAoAAAAAAAAAAABAIp4CAAAAAAAAAAAAkIinAAAAAAAAAAAAACTiKQAAAAAAAAAAAACJeAoAAAAAAAAAAABAIp4CAAAAAAAAAAAAkIinAAAAAAAAAAAAACTiKQAAAAAAAAAAAACJeAoAAAAAAAAAAABAIp4CAAAAAAAAAAAAkIinAAAAAAAAAAAAACTiKQAAAAAAAAAAAACJeAoAAAAAAAAAAABAIp4CAAAAAAAAAAAAkIinAAAAAAAAAAAAACTiKQAAAAAAAAAAAACJeAoAAAAAAAAAAABAIp4CAAAAAAAAAAAAkIinAAAAAAAAAAAAACTiKQAAAAAAAAAAAACJeAoAAAAAAAAAAABAIp4CAAAAAAAAAAAAkIinAAAAAAAAAAAAACTiKQAAAAAAAAAAAACJeAoAAAAAAAAAAABAIp4CAAAAAAAAAAAAkIinAAAAAAAAAAAAACTiKQAAAAAAAAAAAACJeAoAAAAAAAAAAABAIp4CAAAAAAAAAAAAkIinAAAAAAAAAAAAACTiKQAAAAAAAAAAAACJeAoAAAAAAAAAAABAIp4CAAAAAAAAAAAAkIinAAAAAAAAAAAAACTiKQAAAAAAAAAAAACJeAoAAAAAAAAAAABAIp4CAAAAAAAAAAAAkIinAAAAAAAAAAAAACTiKQAAAAAAAAAAAACJeAoAAAAAAAAAAABAIp4CAAAAAAAAAAAAkIinAAAAAAAAAAAAACTiKQAAAAAAAAAAAACJeAoAAAAAAAAAAABAIp4CAAAAAAAAAAAAkIinAAAAAAAAAAAAACTiKQAAAAAAAAAAAACJeAoAAAAAAAAAAABAIp4CAAAAAAAAAAAAkIinAAAAAAAAAAAAACTiKQAAAAAAAAAAAACJeAoAAAAAAAAAAABAIp4CAAAAAAAAAAAAkIinAAAAAAAAAAAAACTiKQAAAAAAAAAAAACJeAoAAAAAAAAAAABAIp4CAAAAAAAAAAAAkIinAAAAAAAAAAAAACTiKQAAAAAAAAAAAACJeAoAAAAAAAAAAABAIp4CAAAAAAAAAAAAkIinAAAAAAAAAAAAACTiKQAAAAAAAAAAAACJeAoAAAAAAAAAAABAIp4CAAAAAAAAAAAAkIinAAAAAAAAAAAAACTiKQAAAAAAAAAAAACJeAoAAAAAAAAAAABAIp4CAAAAAAAAAAAAkIinAAAAAAAAAAAAACTiKQAAAAAAAAAAAACJeAoAAAAAAAAAAABAIp4CAAAAAAAAAAAAkIinAAAAAAAAAAAAACTiKQAAAAAAAAAAAACJeAoAAAAAAAAAAABAIp4CAAAAAAAAAAAAkIinAAAAAAAAAAAAACTiKQAAAAAAAAAAAACJeAoAAAAAAAAAAABAIp4CAAAAAAAAAAAAkIinAAAAAAAAAAAAACTiKQAAAAAAAAAAAACJeAoAAAAAAAAAAABAIp4CAAAAAAAAAAAAkIinAAAAAAAAAAAAACTiKQAAAAAAAAAAAACJeAoAAAAAAAAAAABAIp4CAAAAAAAAAAAAkIinAAAAAAAAAAAAACTiKQAAAAAAAAAAAACJeAoAAAAAAAAAAABAIp4CAAAAAAAAAAAAkIinAAAAAAAAAAAAACTiKQAAAAAAAAAAAACJeAoAAAAAAAAAAABAIp4CAAAAAAAAAAAAkIinAAAAAAAAAAAAACTiKQAAAAAAAAAAAACJeAoAAAAAAAAAAABAIp4CAAAAAAAAAAAAkIinAAAAAAAAAAAAACTiKQAAAAAAAAAAAACJeAoAAAAAAAAAAABAIp4CAAAAAAAAAAAAkIinAAAAAAAAAAAAACTiKQAAAAAAAAAAAACJeAoAAAAAAAAAAABAIp4CAAAAAAAAAAAAkIinAAAAAAAAAAAAACTiKQAAAAAAAAAAAACJeAoAAAAAAAAAAABAIp4CAAAAAAAAAAAAkIinAAAAAAAAAAAAACTiKQAAAAAAAAAAAACJeAoAAAAAAAAAAABAIp4CAAAAAAAAAAAAkIinAAAAAAAAAAAAACTiKQAAAAAAAAAAAACJeAoAAAAAAAAAAABAIp4CAAAAAAAAAAAAkIinAAAAAAAAAAAAACTiKQAAAAAAAAAAAACJeAoAAAAAAAAAAABAIp4CAAAAAAAAAAAAkIinAAAAAAAAAAAAACTiKQAAAAAAAAAAAACJeAoAAAAAAAAAAABAIp4CAAAAAAAAAAAAkIinAAAAAAAAAAAAACTiKQAAAAAAAAAAAACJeAoAAAAAAAAAAABAIp4CAAAAAAAAAAAAkIinAAAAAAAAAAAAACTiKQAAAAAAAAAAAACJeAoAAAAAAAAAAABAIp4CAAAAAAAAAAAAkIinAAAAAAAAAAAAACTiKQAAAAAAAAAAAACJeAoAAAAAAAAAAABAIp4CAAAAAAAAAAAAkIinAAAAAAAAAAAAACTiKQAAAAAAAAAAAACJeAoAAAAAAAAAAABAIp4CAAAAAAAAAAAAkIinAAAAAAAAAAAAACTiKQAAAAAAAAAAAACJeAoAAAAAAAAAAABAIp4CAAAAAAAAAAAAkIinAAAAAAAAAAAAACTiKQAAAAAAAAAAAACJeAoAAAAAAAAAAABAIp4CAAAAAAAAAAAAkIinAAAAAAAAAAAAACTiKQAAAAAAAAAAAACJeAoAAAAAAAAAAABAIp4CAAAAAAAAAAAAkIinAAAAAAAAAAAAACTiKQAAAAAAAAAAAACJeAoAAAAAAAAAAABAIp4CAAAAAAAAAAAAkIinAAAAAAAAAAAAACTiKQAAAAAAAAAAAACJeAoAAAAAAAAAAABAIp4CAAAAAAAAAAAAkIinAAAAAAAAAAAAACTiKQAAAAAAAAAAAACJeAoAAAAAAAAAAABAIp4CAAAAAAAAAAAAkIinAAAAAAAAAAAAACTiKQAAAAAAAAAAAACJeAoAAAAAAAAAAABAIp4CAAAAAAAAAAAAkIinAAAAAAAAAAAAACTiKQAAAAAAAAAAAACJeAoAAAAAAAAAAABAIp4CAAAAAAAAAAAAkIinAAAAAAAAAAAAACTiKQAAAAAAAAAAAACJeAoAAAAAAAAAAABAIp4CAAAAAAAAAAAAkIinAAAAAAAAAAAAACTiKQAAAAAAAAAAAACJeAoAAAAAAAAAAABAIp4CAAAAAAAAAAAAkIinAAAAAAAAAAAAACTiKQAAAAAAAAAAAACJeAoAAAAAAAAAAABAIp4CAAAAAAAAAAAA8Nt2KTSKxdu1qpoAAAAASUVORK5CYII=;imageBackground=default;imageBorder=#EBEBEB;strokeWidth=1;fontColor=none;noLabel=1;sketch=1;curveFitting=1;jiggle=2;" parent="1" vertex="1">
          <mxGeometry x="1410" y="500" width="332.57" height="110" as="geometry" />
        </mxCell>
        <mxCell id="1cgbwnkBgbCBBY_BUVib-4" style="edgeStyle=orthogonalEdgeStyle;rounded=1;orthogonalLoop=1;jettySize=auto;html=1;sketch=1;curveFitting=1;jiggle=2;" parent="1" source="1cgbwnkBgbCBBY_BUVib-5" target="1cgbwnkBgbCBBY_BUVib-13" edge="1">
          <mxGeometry relative="1" as="geometry">
            <Array as="points">
              <mxPoint x="1740" y="888" />
              <mxPoint x="1740" y="888" />
            </Array>
          </mxGeometry>
        </mxCell>
        <mxCell id="1cgbwnkBgbCBBY_BUVib-5" value="VNET-PROD-01&lt;br&gt;10.0.0.0/24" style="rounded=1;whiteSpace=wrap;html=1;dashed=1;strokeColor=default;labelPosition=center;verticalLabelPosition=bottom;align=center;verticalAlign=top;fillColor=#F2F2F2;strokeWidth=2;arcSize=6;fontColor=#737373;sketch=1;curveFitting=1;jiggle=2;" parent="1" vertex="1">
          <mxGeometry x="1944.69" y="710" width="565.32" height="280" as="geometry" />
        </mxCell>
        <mxCell id="1cgbwnkBgbCBBY_BUVib-6" value="PREM-PROD&lt;br&gt;10.100.0.0/16&lt;span style=&quot;background-color: rgb(255 , 255 , 255)&quot;&gt;&lt;br&gt;&lt;/span&gt;" style="rounded=1;whiteSpace=wrap;html=1;dashed=1;labelPosition=center;verticalLabelPosition=bottom;align=center;verticalAlign=top;fillColor=#F2F2F2;fontStyle=1;sketch=1;curveFitting=1;jiggle=2;" parent="1" vertex="1">
          <mxGeometry x="920" y="1206.36" width="410" height="303.89" as="geometry" />
        </mxCell>
        <mxCell id="1cgbwnkBgbCBBY_BUVib-7" value="vms&lt;br&gt;10.0.0.0/25" style="rounded=1;whiteSpace=wrap;html=1;labelBackgroundColor=none;labelPosition=center;verticalLabelPosition=bottom;align=center;verticalAlign=top;gradientColor=none;fillColor=default;gradientDirection=north;strokeColor=#3C3C41;fontStyle=0;fontColor=#737373;dashed=1;arcSize=9;sketch=1;curveFitting=1;jiggle=2;" parent="1" vertex="1">
          <mxGeometry x="1994.69" y="751.72" width="168.11" height="168.06" as="geometry" />
        </mxCell>
        <mxCell id="1cgbwnkBgbCBBY_BUVib-11" value="&lt;font style=&quot;font-size: 32px;&quot;&gt;Azure Firewall with VPN&lt;br style=&quot;font-size: 32px;&quot;&gt;&lt;/font&gt;" style="rounded=1;whiteSpace=wrap;html=1;dashed=1;labelPosition=center;verticalLabelPosition=middle;align=left;verticalAlign=middle;fillColor=#F2F2F2;fontStyle=1;fontColor=#7E7E7E;labelBackgroundColor=none;fontSize=32;fontFamily=Helvetica;spacingLeft=18;sketch=1;curveFitting=1;jiggle=2;" parent="1" vertex="1">
          <mxGeometry x="1420.44" y="300" width="1064.77" height="110" as="geometry" />
        </mxCell>
        <mxCell id="1cgbwnkBgbCBBY_BUVib-12" style="edgeStyle=orthogonalEdgeStyle;rounded=1;orthogonalLoop=1;jettySize=auto;html=1;sketch=1;curveFitting=1;jiggle=2;" parent="1" source="1cgbwnkBgbCBBY_BUVib-13" edge="1">
          <mxGeometry relative="1" as="geometry">
            <Array as="points">
              <mxPoint x="1690" y="1210" />
              <mxPoint x="1690" y="1210" />
            </Array>
            <mxPoint x="1690" y="1220" as="targetPoint" />
          </mxGeometry>
        </mxCell>
        <mxCell id="1cgbwnkBgbCBBY_BUVib-13" value="VNET-HUB-PROD&lt;br&gt;10.0.240.0/20" style="rounded=1;whiteSpace=wrap;html=1;dashed=1;strokeColor=default;labelPosition=center;verticalLabelPosition=bottom;align=center;verticalAlign=top;fillColor=#F2F2F2;strokeWidth=2;arcSize=6;sketch=1;curveFitting=1;jiggle=2;" parent="1" vertex="1">
          <mxGeometry x="1440" y="650" width="270" height="850" as="geometry" />
        </mxCell>
        <mxCell id="1cgbwnkBgbCBBY_BUVib-14" value="&lt;span style=&quot;font-size: 13px;&quot;&gt;AzureFirewallSubnet&lt;br&gt;10.0.240.0/24&lt;br&gt;&lt;/span&gt;" style="rounded=1;whiteSpace=wrap;html=1;labelBackgroundColor=none;labelPosition=center;verticalLabelPosition=bottom;align=center;verticalAlign=top;gradientColor=none;fillColor=default;gradientDirection=north;strokeColor=#3C3C41;fontStyle=0;fontColor=#737373;dashed=1;arcSize=9;sketch=1;curveFitting=1;jiggle=2;" parent="1" vertex="1">
          <mxGeometry x="1483.6" y="1000" width="170" height="110" as="geometry" />
        </mxCell>
        <mxCell id="1cgbwnkBgbCBBY_BUVib-15" value="&lt;font color=&quot;#505050&quot;&gt;AzFw-PROD&lt;br&gt;10.0.255.4&lt;br&gt;&lt;/font&gt;" style="aspect=fixed;html=1;points=[];align=center;image;fontSize=12;image=img/lib/mscae/Azure_Firewall.svg;labelBackgroundColor=none;strokeColor=#D8D8D8;fillColor=#F2F2F2;gradientColor=none;sketch=1;curveFitting=1;jiggle=2;" parent="1" vertex="1">
          <mxGeometry x="1551.2799999999997" y="1020.0000000000005" width="50" height="50" as="geometry" />
        </mxCell>
        <mxCell id="1cgbwnkBgbCBBY_BUVib-16" value="vms&lt;br&gt;10.0.243.0/24" style="rounded=1;whiteSpace=wrap;html=1;labelBackgroundColor=none;labelPosition=center;verticalLabelPosition=bottom;align=center;verticalAlign=top;gradientColor=none;fillColor=default;gradientDirection=north;strokeColor=#3C3C41;fontStyle=0;fontColor=#737373;dashed=1;arcSize=9;sketch=1;curveFitting=1;jiggle=2;" parent="1" vertex="1">
          <mxGeometry x="1480.97" y="658.22" width="170" height="110" as="geometry" />
        </mxCell>
        <mxCell id="1cgbwnkBgbCBBY_BUVib-17" value="" style="group;labelBackgroundColor=none;fontColor=#505050;sketch=1;curveFitting=1;jiggle=2;" parent="1" vertex="1" connectable="0">
          <mxGeometry x="2052.74" y="802.3899999999999" width="60" height="50" as="geometry" />
        </mxCell>
        <mxCell id="1cgbwnkBgbCBBY_BUVib-18" value="VM-PROD-01&lt;br&gt;10.0.0.4" style="aspect=fixed;html=1;points=[];align=center;image;fontSize=12;image=img/lib/azure2/compute/Virtual_Machine.svg;labelBackgroundColor=none;strokeColor=#0078D4;fillColor=#FFFFFF;fontColor=#505050;sketch=1;curveFitting=1;jiggle=2;" parent="1cgbwnkBgbCBBY_BUVib-17" vertex="1">
          <mxGeometry width="50" height="50" as="geometry" />
        </mxCell>
        <mxCell id="1cgbwnkBgbCBBY_BUVib-19" value="&lt;font style=&quot;font-size: 18px;&quot;&gt;&lt;span style=&quot;font-weight: normal; font-size: 18px;&quot;&gt;https://learn.microsoft.com/en-us/azure/cloud-adoption-framework/ready/landing-zone/&lt;br style=&quot;font-size: 18px;&quot;&gt;h&lt;font style=&quot;font-size: 18px;&quot;&gt;ttps://learn.microsoft.com/en-us/azure/architecture/reference-architectures/hybrid-networking/hub-spoke?tabs=cli&lt;/font&gt;&lt;/span&gt;&lt;br style=&quot;font-size: 18px;&quot;&gt;&lt;/font&gt;" style="rounded=1;whiteSpace=wrap;html=1;dashed=1;labelPosition=center;verticalLabelPosition=middle;align=left;verticalAlign=middle;fillColor=#F2F2F2;fontStyle=1;fontColor=#7E7E7E;labelBackgroundColor=none;fontSize=18;fontFamily=Helvetica;spacingLeft=18;sketch=1;curveFitting=1;jiggle=2;" parent="1" vertex="1">
          <mxGeometry x="1427.4" y="410" width="1064.77" height="60" as="geometry" />
        </mxCell>
        <mxCell id="1cgbwnkBgbCBBY_BUVib-20" value="UDR-PRD-01" style="aspect=fixed;html=1;points=[];align=center;image;fontSize=12;image=img/lib/azure2/networking/Route_Tables.svg;labelBackgroundColor=none;sketch=1;curveFitting=1;jiggle=2;" parent="1" vertex="1">
          <mxGeometry x="2139.51" y="729.94" width="41.29" height="40" as="geometry" />
        </mxCell>
        <mxCell id="1cgbwnkBgbCBBY_BUVib-21" value="Gateway subnet&lt;br&gt;10.100.0.0/24" style="rounded=1;whiteSpace=wrap;html=1;dashed=1;strokeColor=#3C3C41;verticalAlign=top;labelPosition=center;verticalLabelPosition=bottom;align=center;fontColor=#737373;arcSize=8;sketch=1;curveFitting=1;jiggle=2;" parent="1" vertex="1">
          <mxGeometry x="1130" y="1273.7999999999997" width="180" height="150" as="geometry" />
        </mxCell>
        <mxCell id="1cgbwnkBgbCBBY_BUVib-22" value="VPNGtw-P-PRD" style="sketch=1;aspect=fixed;html=1;points=[];align=center;image;fontSize=12;image=img/lib/mscae/VPN_Gateway.svg;labelBackgroundColor=none;fontColor=#505050;curveFitting=1;jiggle=2;" parent="1" vertex="1">
          <mxGeometry x="1197.5" y="1316.11" width="45" height="50" as="geometry" />
        </mxCell>
        <mxCell id="1cgbwnkBgbCBBY_BUVib-26" style="edgeStyle=orthogonalEdgeStyle;rounded=1;orthogonalLoop=1;jettySize=auto;html=1;sketch=1;curveFitting=1;jiggle=2;" parent="1" source="1cgbwnkBgbCBBY_BUVib-27" target="1cgbwnkBgbCBBY_BUVib-13" edge="1">
          <mxGeometry relative="1" as="geometry">
            <Array as="points">
              <mxPoint x="1930" y="1250" />
              <mxPoint x="1930" y="910" />
            </Array>
          </mxGeometry>
        </mxCell>
        <mxCell id="1cgbwnkBgbCBBY_BUVib-27" value="VNET-PROD-02&lt;br&gt;10.0.1.0/24" style="rounded=1;whiteSpace=wrap;html=1;dashed=1;strokeColor=default;labelPosition=center;verticalLabelPosition=bottom;align=center;verticalAlign=top;fillColor=#F2F2F2;strokeWidth=2;arcSize=6;fontColor=#737373;sketch=1;curveFitting=1;jiggle=2;" parent="1" vertex="1">
          <mxGeometry x="1949.94" y="1040" width="565.32" height="280" as="geometry" />
        </mxCell>
        <mxCell id="1cgbwnkBgbCBBY_BUVib-28" value="vms&lt;br&gt;10.0.1.0/25" style="rounded=1;whiteSpace=wrap;html=1;labelBackgroundColor=none;labelPosition=center;verticalLabelPosition=bottom;align=center;verticalAlign=top;gradientColor=none;fillColor=default;gradientDirection=north;strokeColor=#3C3C41;fontStyle=0;fontColor=#737373;dashed=1;arcSize=9;sketch=1;curveFitting=1;jiggle=2;" parent="1" vertex="1">
          <mxGeometry x="1999.9399999999998" y="1079.7800000000002" width="170" height="170" as="geometry" />
        </mxCell>
        <mxCell id="1cgbwnkBgbCBBY_BUVib-29" value="" style="group;labelBackgroundColor=none;fontColor=#505050;sketch=1;curveFitting=1;jiggle=2;" parent="1" vertex="1" connectable="0">
          <mxGeometry x="2057.99" y="1132.3899999999999" width="60" height="50" as="geometry" />
        </mxCell>
        <mxCell id="1cgbwnkBgbCBBY_BUVib-30" value="VM-PROD-02&lt;br&gt;10.0.1.4" style="aspect=fixed;html=1;points=[];align=center;image;fontSize=12;image=img/lib/azure2/compute/Virtual_Machine.svg;labelBackgroundColor=none;strokeColor=#0078D4;fillColor=#FFFFFF;fontColor=#505050;sketch=1;curveFitting=1;jiggle=2;" parent="1cgbwnkBgbCBBY_BUVib-29" vertex="1">
          <mxGeometry width="50" height="50" as="geometry" />
        </mxCell>
        <mxCell id="1cgbwnkBgbCBBY_BUVib-31" value="UDR-PRD-02" style="aspect=fixed;html=1;points=[];align=center;image;fontSize=12;image=img/lib/azure2/networking/Route_Tables.svg;labelBackgroundColor=none;sketch=1;curveFitting=1;jiggle=2;" parent="1" vertex="1">
          <mxGeometry x="2144.7599999999998" y="1059.94" width="41.29" height="40" as="geometry" />
        </mxCell>
        <mxCell id="1cgbwnkBgbCBBY_BUVib-51" value="UDR-PROD-Fw" style="aspect=fixed;html=1;points=[];align=center;image;fontSize=12;image=img/lib/azure2/networking/Route_Tables.svg;labelBackgroundColor=none;sketch=1;curveFitting=1;jiggle=2;" parent="1" vertex="1">
          <mxGeometry x="1470" y="980.0000000000002" width="41.29" height="40" as="geometry" />
        </mxCell>
        <mxCell id="1cgbwnkBgbCBBY_BUVib-52" value="vms&lt;br&gt;10.100.1.0/24" style="rounded=1;whiteSpace=wrap;html=1;dashed=1;strokeColor=#3C3C41;verticalAlign=top;labelPosition=center;verticalLabelPosition=bottom;align=center;fontColor=#737373;arcSize=8;sketch=1;curveFitting=1;jiggle=2;" parent="1" vertex="1">
          <mxGeometry x="960" y="1266.11" width="120" height="150" as="geometry" />
        </mxCell>
        <mxCell id="1cgbwnkBgbCBBY_BUVib-53" value="VM-PREM-01&lt;br&gt;10.100.1.4" style="aspect=fixed;html=1;points=[];align=center;image;fontSize=12;image=img/lib/azure2/compute/Virtual_Machine.svg;labelBackgroundColor=none;strokeColor=#0078D4;fillColor=#FFFFFF;fontColor=#505050;sketch=1;curveFitting=1;jiggle=2;" parent="1" vertex="1">
          <mxGeometry x="995" y="1299.7799999999997" width="50" height="50" as="geometry" />
        </mxCell>
        <mxCell id="1cgbwnkBgbCBBY_BUVib-57" value="&lt;span style=&quot;font-size: 13px;&quot;&gt;AzureBastionSubnet&lt;br&gt;10.0.242.0/24&lt;br&gt;&lt;/span&gt;" style="rounded=1;whiteSpace=wrap;html=1;labelBackgroundColor=none;labelPosition=center;verticalLabelPosition=bottom;align=center;verticalAlign=top;gradientColor=none;fillColor=default;gradientDirection=north;strokeColor=#3C3C41;fontStyle=0;fontColor=#737373;dashed=1;arcSize=9;sketch=1;curveFitting=1;jiggle=2;" parent="1" vertex="1">
          <mxGeometry x="1487.37" y="819.03" width="170" height="110" as="geometry" />
        </mxCell>
        <mxCell id="1cgbwnkBgbCBBY_BUVib-58" value="Bastion-PRD" style="image;aspect=fixed;html=1;points=[];align=center;fontSize=12;image=img/lib/azure2/general/Browser.svg;sketch=1;curveFitting=1;jiggle=2;" parent="1" vertex="1">
          <mxGeometry x="1537.0900000000001" y="838.67" width="65" height="52" as="geometry" />
        </mxCell>
        <mxCell id="1cgbwnkBgbCBBY_BUVib-59" value="" style="group;labelBackgroundColor=none;fontColor=#505050;sketch=1;curveFitting=1;jiggle=2;" parent="1" vertex="1" connectable="0">
          <mxGeometry x="1540.97" y="673.7799999999999" width="60" height="50" as="geometry" />
        </mxCell>
        <mxCell id="1cgbwnkBgbCBBY_BUVib-60" value="VM-SEC-PRD&lt;br&gt;&lt;div&gt;10.0.243.4&lt;br&gt;&lt;/div&gt;" style="aspect=fixed;html=1;points=[];align=center;image;fontSize=12;image=img/lib/azure2/compute/Virtual_Machine.svg;labelBackgroundColor=none;strokeColor=#0078D4;fillColor=#FFFFFF;fontColor=#505050;sketch=1;curveFitting=1;jiggle=2;" parent="1cgbwnkBgbCBBY_BUVib-59" vertex="1">
          <mxGeometry width="50" height="50" as="geometry" />
        </mxCell>
        <mxCell id="1cgbwnkBgbCBBY_BUVib-65" value="UDR-PREM" style="aspect=fixed;html=1;points=[];align=center;image;fontSize=12;image=img/lib/azure2/networking/Route_Tables.svg;labelBackgroundColor=none;sketch=1;curveFitting=1;jiggle=2;" parent="1" vertex="1">
          <mxGeometry x="1058.71" y="1240.0000000000002" width="41.29" height="40" as="geometry" />
        </mxCell>
        <mxCell id="1cgbwnkBgbCBBY_BUVib-72" value="GatewaySubnet&lt;br&gt;10.0.241.0/24" style="rounded=1;whiteSpace=wrap;html=1;dashed=1;strokeColor=#3C3C41;verticalAlign=top;labelPosition=center;verticalLabelPosition=bottom;align=center;fontColor=#737373;arcSize=8;sketch=1;curveFitting=1;jiggle=2;" parent="1" vertex="1">
          <mxGeometry x="1479.5900000000001" y="1251.1999999999998" width="180" height="150" as="geometry" />
        </mxCell>
        <mxCell id="1cgbwnkBgbCBBY_BUVib-73" value="VPNGtw-PROD" style="sketch=1;aspect=fixed;html=1;points=[];align=center;image;fontSize=12;image=img/lib/mscae/VPN_Gateway.svg;labelBackgroundColor=none;fontColor=#505050;curveFitting=1;jiggle=2;" parent="1" vertex="1">
          <mxGeometry x="1549.5900000000001" y="1301.1999999999998" width="45" height="50" as="geometry" />
        </mxCell>
        <mxCell id="1cgbwnkBgbCBBY_BUVib-74" value="UDR-PROD-Gtw" style="aspect=fixed;html=1;points=[];align=center;image;fontSize=12;image=img/lib/azure2/networking/Route_Tables.svg;labelBackgroundColor=none;sketch=1;curveFitting=1;jiggle=2;" parent="1" vertex="1">
          <mxGeometry x="1631.6799999999998" y="1240" width="41.29" height="40" as="geometry" />
        </mxCell>
        <mxCell id="jP6I-i8cWwjeldKzsKab-1" value="10.100.0.0/16 -&amp;gt; Gateway" style="text;align=center;verticalAlign=middle;resizable=0;points=[];autosize=1;strokeColor=none;fillColor=none;fontSize=12;fontFamily=Helvetica;html=1;" vertex="1" parent="1">
          <mxGeometry x="1140" y="1008" width="160" height="30" as="geometry" />
        </mxCell>
      </root>
    </mxGraphModel>
  </diagram>
</mxfile>
